<?xml version="1.0" standalone="no"?>
<!DOCTYPE svg PUBLIC "-//W3C//DTD SVG 20010904//EN"
 "http://www.w3.org/TR/2001/REC-SVG-20010904/DTD/svg10.dtd">
<svg version="1.0" xmlns="http://www.w3.org/2000/svg"
 width="1424.000000pt" height="2000.000000pt" viewBox="0 0 1424.000000 2000.000000"
 preserveAspectRatio="xMidYMid meet">

<g transform="translate(0.000000,2000.000000) scale(0.100000,-0.100000)"
fill="#000000" stroke="none">
<path d="M5735 12199 c-16 -5 -273 -57 -570 -115 -297 -58 -733 -143 -970
-189 -236 -46 -581 -113 -765 -149 -934 -182 -1090 -214 -1105 -226 -9 -7 -41
-65 -72 -129 -439 -916 -589 -1244 -778 -1701 -420 -1021 -657 -1966 -764
-3040 -36 -356 -53 -571 -58 -695 -23 -616 415 -1168 1032 -1300 39 -8 207
-24 375 -35 739 -48 980 -61 1059 -58 l85 3 18 -160 c32 -284 108 -662 131
-648 6 3 7 1 3 -6 -9 -14 43 -191 55 -191 5 0 6 -6 3 -14 -3 -8 0 -23 6 -33 8
-13 10 -13 7 -2 -3 9 -1 22 5 30 6 10 8 2 5 -26 -5 -47 10 -98 26 -88 7 4 8 0
4 -11 -8 -19 28 -114 49 -132 8 -6 11 -14 7 -17 -9 -10 109 -247 120 -240 6 3
5 8 -1 12 -32 21 -69 181 -40 181 5 0 6 -5 3 -10 -4 -6 10 -10 34 -10 l41 0 0
-46 c0 -25 -4 -43 -8 -40 -9 6 3 -87 13 -104 3 -5 1 -10 -5 -10 -7 0 -9 -9 -5
-23 5 -17 4 -19 -4 -7 -6 8 -8 23 -5 33 5 16 -6 23 -19 11 -5 -6 22 -64 76
-158 13 -23 17 -26 16 -11 -1 11 3 31 9 45 7 17 11 20 11 8 1 -9 -4 -20 -9
-23 -6 -4 -7 -13 -1 -24 5 -9 9 -26 8 -36 -2 -15 4 -20 20 -19 14 1 20 -3 16
-12 -3 -8 -10 -11 -15 -7 -16 9 14 -38 110 -176 51 -73 95 -126 105 -127 19
-3 46 -31 47 -49 0 -5 -11 4 -25 20 -13 17 -24 25 -25 19 0 -12 123 -164 193
-238 27 -28 44 -41 38 -29 -14 28 -14 30 7 38 13 5 14 4 5 -6 -8 -8 -9 -18 -2
-31 5 -10 8 -22 5 -26 -6 -10 211 -228 219 -220 3 3 -6 15 -21 27 -15 11 -22
21 -17 21 5 0 22 -14 38 -30 16 -17 25 -30 21 -30 -5 0 5 -14 22 -31 17 -17
35 -28 41 -24 17 10 1 27 -18 20 -12 -5 -13 -4 -4 6 10 10 16 9 28 -1 11 -9
13 -16 5 -24 -13 -13 -13 -29 0 -21 6 3 10 1 10 -5 0 -12 55 -62 65 -60 4 1
15 -8 25 -20 15 -17 22 -19 44 -10 21 8 28 7 33 -6 8 -21 -4 -29 -22 -14 -9 7
-17 11 -20 8 -2 -2 21 -23 51 -47 46 -36 59 -42 77 -34 22 9 66 4 70 -8 1 -4
-7 -17 -18 -30 -18 -20 -18 -22 -2 -16 11 4 16 3 12 -3 -3 -5 5 -15 19 -22 14
-6 26 -15 26 -21 0 -5 7 -6 16 -3 8 3 13 2 10 -3 -3 -5 5 -16 19 -25 14 -9 25
-12 25 -7 0 5 -6 11 -14 14 -8 3 -14 14 -13 25 1 14 8 18 31 17 17 -1 35 3 39
9 5 7 7 3 5 -9 -2 -11 -12 -21 -22 -23 -11 -3 -16 0 -12 7 10 16 -10 13 -23
-3 -10 -11 -8 -16 9 -21 13 -4 19 -12 16 -20 -3 -10 0 -12 11 -8 10 4 14 2 10
-4 -4 -6 0 -13 8 -17 8 -3 17 -1 20 5 4 5 11 7 16 3 6 -3 5 -12 -3 -22 -12
-14 -10 -14 10 -3 25 13 35 10 38 -14 1 -8 -4 -11 -13 -8 -12 5 -12 7 -1 15
11 8 11 9 0 6 -8 -2 -13 -8 -13 -13 1 -14 132 -84 158 -85 12 0 27 -9 33 -19
7 -13 17 -18 32 -14 15 3 19 2 11 -4 -9 -6 8 -19 55 -42 37 -18 71 -32 76 -31
5 1 13 -4 17 -12 7 -11 11 -11 17 0 7 10 20 8 63 -13 38 -18 45 -24 24 -20
l-30 6 30 -19 c17 -10 44 -23 60 -29 17 -6 39 -14 49 -19 13 -5 17 -4 13 3 -7
11 41 28 51 18 3 -3 -2 -5 -10 -5 -9 0 -19 -7 -22 -16 -3 -8 -2 -12 4 -9 5 3
27 -3 49 -15 23 -11 48 -17 58 -13 10 3 14 2 10 -2 -4 -5 13 -17 38 -27 33
-13 51 -15 71 -8 39 15 53 11 19 -6 l-30 -14 28 5 c19 4 26 2 22 -5 -3 -5 -1
-10 4 -10 6 0 11 4 11 9 0 5 10 7 23 4 18 -4 19 -3 7 6 -13 10 -13 11 0 10 8
0 24 -4 35 -8 16 -7 13 -9 -20 -16 l-40 -8 83 -23 c46 -13 99 -21 120 -18 29
3 31 2 12 -4 -24 -8 -24 -8 9 -15 50 -10 58 -8 36 10 -18 14 -18 15 -2 9 10
-3 21 -6 23 -6 2 0 4 -7 4 -15 0 -10 10 -15 28 -15 15 0 43 -5 62 -10 68 -20
338 -50 540 -61 155 -8 252 -8 400 1 107 7 196 15 198 20 1 4 13 5 26 3 13 -3
55 0 92 7 38 6 88 14 112 17 23 3 42 9 42 14 0 5 15 6 33 3 31 -6 31 -6 12 9
-11 9 -31 17 -45 17 -14 1 -34 5 -45 10 -14 6 -7 7 22 3 26 -3 52 0 70 9 16 8
40 11 58 7 30 -6 30 -6 5 -11 -14 -3 -5 -4 20 -2 25 2 56 6 70 10 20 4 22 3
10 -5 -23 -17 -4 -13 120 20 141 38 294 89 298 101 2 4 7 6 12 3 13 -8 70 16
64 27 -4 6 2 8 16 3 17 -5 21 -4 15 6 -6 9 -4 11 8 6 9 -3 48 9 89 28 l73 33
-64 -4 c-35 -2 -61 -1 -58 2 3 4 27 7 54 9 26 2 57 6 67 11 14 5 17 4 12 -4
-11 -17 -7 -16 88 31 48 24 83 47 79 52 -5 4 -2 5 4 1 13 -7 208 98 221 118 3
6 -6 3 -22 -7 -15 -10 -30 -17 -32 -15 -2 3 15 15 38 28 22 13 38 18 34 11 -6
-8 -1 -8 18 0 14 7 23 16 20 20 -3 5 1 7 8 4 11 -4 78 38 135 85 6 5 24 17 40
27 49 31 217 159 231 175 9 11 10 18 2 23 -6 4 -9 1 -8 -7 2 -7 -5 -12 -14
-12 -10 1 -15 -2 -12 -7 3 -5 1 -9 -5 -9 -13 0 -10 36 4 38 5 0 22 3 37 5 18
3 25 0 21 -7 -4 -6 28 20 70 58 42 37 74 73 71 78 -4 6 -1 9 7 6 21 -7 39 23
27 45 -8 16 -7 17 9 9 28 -15 58 10 44 36 -9 16 -7 19 7 18 12 -1 17 6 16 26
0 26 1 26 16 10 16 -16 16 -18 -2 -30 -10 -7 -18 -18 -18 -24 0 -16 48 31 56
54 4 12 0 24 -11 32 -15 10 -14 12 4 13 11 1 24 -3 27 -9 4 -7 2 -8 -4 -4 -8
5 -10 2 -6 -8 4 -11 20 0 58 42 118 128 184 206 180 213 -2 4 0 9 4 11 5 1 32
35 62 73 29 39 58 76 64 84 9 12 7 13 -7 8 -26 -10 -41 1 -27 18 7 8 8 20 4
26 -5 8 -3 9 6 4 9 -6 12 -4 8 6 -4 10 1 15 14 16 18 2 19 0 6 -15 -29 -34
-31 -46 -2 -22 15 14 22 17 15 7 -27 -35 -5 -25 24 10 16 20 23 33 17 29 -8
-5 -10 -2 -6 8 3 9 10 14 14 13 5 -1 31 34 58 79 44 71 48 83 36 99 -8 10 -14
22 -14 26 0 9 27 5 37 -6 4 -4 2 -5 -4 -1 -14 8 -18 -10 -5 -18 5 -3 19 12 31
34 16 28 18 39 9 42 -10 4 -10 8 0 21 8 9 10 22 6 28 -13 21 -11 66 2 66 10 0
10 -5 3 -20 -6 -10 -8 -21 -5 -24 3 -3 11 6 17 21 13 28 24 33 34 16 4 -6 1
-9 -6 -8 -6 2 -14 -3 -17 -11 -3 -9 0 -11 9 -6 7 5 2 -8 -10 -29 -13 -20 -21
-39 -18 -42 8 -8 85 150 79 165 -2 8 0 11 5 8 6 -4 31 40 58 101 26 59 56 125
66 148 11 26 17 56 14 80 -4 33 -3 34 3 9 8 -29 9 -27 30 35 12 36 19 76 17
90 -4 19 -3 20 3 7 6 -14 15 4 35 73 15 50 25 96 21 102 -4 6 -3 8 4 5 10 -7
28 63 24 90 -2 6 2 14 8 18 16 10 12 25 -5 19 -8 -4 -15 -1 -15 4 0 6 8 13 18
17 21 6 28 34 62 230 12 66 19 136 16 155 -4 24 -3 29 3 15 11 -25 26 132 16
167 -5 18 -4 20 4 8 8 -12 11 -8 11 18 0 31 2 33 28 28 92 -18 223 -15 752 18
316 19 620 40 675 46 435 46 817 308 1013 695 56 111 79 173 110 295 24 94 26
124 27 290 0 203 -12 284 -66 438 -22 60 -36 136 -55 280 -140 1111 -414 2118
-911 3347 -187 463 -663 1559 -688 1584 -8 8 -159 42 -362 82 -191 37 -523
102 -738 144 -214 42 -491 96 -615 120 -124 24 -448 87 -720 140 -272 53 -618
121 -768 151 -150 30 -275 54 -276 54 -2 0 -7 -21 -10 -47 -16 -112 -83 -268
-162 -379 -50 -71 -183 -210 -264 -276 -122 -101 -347 -242 -530 -333 -41 -20
-77 -39 -79 -41 -2 -2 -25 -205 -50 -452 -52 -492 -53 -496 -121 -534 -44 -24
-120 -20 -158 9 -55 41 -58 52 -107 528 -25 247 -47 449 -48 450 -1 0 -54 26
-119 58 -443 219 -759 506 -875 791 -18 45 -38 114 -45 154 -13 79 -17 81 -83
61z m1443 -3506 c-49 -2 -127 -2 -175 0 -49 1 -9 3 87 3 96 0 136 -2 88 -3z
m-322 -12 c-3 -4 -69 -11 -147 -15 -78 -4 -153 -12 -167 -17 -24 -9 -42 -5
-30 6 6 7 239 32 306 34 24 0 41 -3 38 -8z m614 -1 c89 -8 263 -31 268 -35 2
-2 -41 -3 -95 -3 -54 0 -103 -1 -108 -2 -20 -4 -36 0 -31 8 3 5 31 7 63 4 32
-2 56 -2 53 1 -3 4 -48 9 -100 12 -52 3 -124 10 -160 14 l-65 9 80 -3 c44 -2
87 -4 95 -5z m-600 -20 c-14 -4 -36 -8 -50 -8 -22 0 -22 1 5 8 17 4 39 8 50 8
16 0 15 -2 -5 -8z m488 3 c-21 -2 -55 -2 -75 0 -21 2 -4 4 37 4 41 0 58 -2 38
-4z m69 -9 c-3 -3 -12 -4 -19 -1 -8 3 -5 6 6 6 11 1 17 -2 13 -5z m-954 -11
c-7 -2 -19 -2 -25 0 -7 3 -2 5 12 5 14 0 19 -2 13 -5z m904 1 c-3 -3 -12 -4
-19 -1 -8 3 -5 6 6 6 11 1 17 -2 13 -5z m438 -14 c4 -6 16 -8 28 -5 18 5 19 4
7 -5 -12 -8 -6 -10 25 -5 39 5 39 4 8 -5 -25 -8 -42 -6 -80 9 -40 17 -44 20
-21 20 15 1 30 -4 33 -9z m-1465 -20 l-35 -7 30 -2 c17 -1 39 -6 50 -10 24 -9
-85 -7 -136 3 -25 5 -30 4 -19 -3 13 -9 12 -11 -5 -11 -11 0 -26 4 -33 9 -22
13 51 23 82 11 33 -12 36 -12 35 -2 -3 18 3 22 34 21 l32 -2 -35 -7z m1465
-10 c3 -5 15 -10 26 -10 10 0 19 -4 19 -10 0 -13 -8 -12 -55 10 -30 14 -35 19
-18 19 12 1 25 -3 28 -9z m164 -10 c-8 -4 -32 -5 -54 -2 -35 5 -37 6 -15 12
32 8 88 0 69 -10z m-1802 -6 c-3 -3 -12 -4 -19 -1 -8 3 -5 6 6 6 11 1 17 -2
13 -5z m1862 2 c-2 -2 -17 -6 -34 -10 -22 -5 -26 -4 -15 4 14 9 59 15 49 6z
m-1894 -16 c4 -6 36 -10 72 -9 43 1 60 5 51 11 -8 6 -5 7 12 2 14 -4 46 -7 73
-6 l47 2 0 -45 0 -45 -160 0 c-88 0 -160 4 -160 9 0 4 -24 7 -52 5 l-53 -3 46
8 c47 9 89 27 89 37 0 8 -130 -3 -138 -10 -3 -4 8 -6 24 -7 28 -1 28 -1 -6
-10 -51 -14 -153 -20 -121 -8 14 5 31 7 39 4 7 -3 25 -2 40 2 22 5 23 7 8 13
-12 4 12 15 71 32 101 30 110 32 118 18z m1645 0 c8 -5 11 -10 5 -10 -5 0 -17
5 -25 10 -8 5 -10 10 -5 10 6 0 17 -5 25 -10z m322 -5 c74 -20 251 -74 254
-78 2 -2 -28 -3 -67 -3 -39 1 -72 -1 -74 -5 -2 -3 -14 -5 -27 -3 -13 1 -62 3
-110 3 l-88 1 0 30 c0 24 4 30 23 30 12 0 30 7 41 15 17 13 15 14 -20 10 -32
-4 -34 -3 -14 4 14 5 26 9 27 10 1 1 26 -6 55 -14z m-172 1 c0 -2 -15 -6 -34
-8 -19 -2 -32 0 -30 4 5 8 64 12 64 4z m-2110 -80 c0 -2 -19 -14 -41 -26 -32
-16 -44 -18 -53 -9 -8 8 -7 10 4 7 8 -3 28 4 45 14 29 17 45 22 45 14z m2656
-42 c43 -18 62 -30 55 -37 -6 -6 -14 -5 -23 3 -7 6 -35 22 -63 35 -68 32 -50
31 31 -1z m-2766 -6 c0 -7 -10 -13 -22 -14 -13 0 -32 -4 -43 -8 -11 -3 -2 3
20 14 48 23 45 23 45 8z m2710 1 c28 -10 30 -13 15 -21 -9 -6 -19 -7 -22 -4
-4 3 0 6 8 6 8 1 1 7 -16 15 -37 17 -29 19 15 4z m-2605 -9 c20 17 25 11 13
-20 -7 -19 -11 -21 -17 -11 -6 9 -18 11 -35 7 -23 -6 -26 -12 -26 -46 0 -40 0
-40 -39 -40 l-39 0 -4 46 c-3 48 12 68 35 45 16 -16 27 -14 28 7 0 10 3 12 6
5 2 -7 12 -13 21 -12 11 0 12 2 5 6 -7 2 -13 9 -13 14 0 5 11 4 25 -3 19 -8
28 -8 40 2z m-237 -57 c16 -16 16 -16 -1 -10 -10 4 -23 7 -28 7 -6 0 -7 5 -4
10 9 14 14 13 33 -7z m3112 -23 c8 -5 11 -10 5 -10 -5 0 -17 5 -25 10 -8 5
-10 10 -5 10 6 0 17 -5 25 -10z m-3270 -35 c-7 -8 -20 -15 -29 -15 -11 1 -8 5
9 15 32 18 35 18 20 0z m130 11 c0 -3 -4 -8 -10 -11 -5 -3 -10 -1 -10 4 0 6 5
11 10 11 6 0 10 -2 10 -4z m-153 -52 c-13 -10 -86 -40 -81 -33 3 5 20 16 37
23 30 14 31 14 7 15 -19 1 -21 4 -11 10 9 6 21 5 32 -2 10 -6 17 -12 16 -13z
m3459 -4 c19 0 115 -52 153 -82 26 -20 26 -20 2 -13 -18 5 -22 4 -16 -6 6 -9
3 -11 -9 -6 -10 4 -35 4 -57 1 -33 -6 -39 -10 -39 -31 0 -35 -27 -70 -63 -82
l-31 -11 39 -40 c38 -39 38 -40 20 -60 -19 -21 -19 -21 -132 92 -106 105 -111
113 -96 130 9 10 21 18 27 18 6 0 18 14 26 31 16 33 46 54 93 64 19 4 25 10
20 18 -4 7 5 4 20 -5 14 -10 34 -18 43 -18z m-3546 -5 c0 -2 -14 -12 -30 -20
-17 -9 -28 -20 -25 -25 3 -6 -1 -7 -9 -4 -22 9 -21 11 22 33 42 23 42 23 42
16z m-85 -55 c3 -5 2 -10 -4 -10 -5 0 -13 5 -16 10 -3 6 -2 10 4 10 5 0 13 -4
16 -10z m59 -22 c-3 -4 -14 -8 -24 -8 -10 0 -22 -4 -25 -10 -3 -5 -12 -10 -18
-10 -7 1 4 14 22 30 25 21 37 26 42 18 4 -7 5 -16 3 -20z m-114 -3 c-10 -12
-10 -15 0 -15 8 0 11 -2 8 -5 -3 -3 -13 -2 -23 1 -17 7 -17 8 1 21 24 17 29
17 14 -2z m-40 -19 c0 -2 -7 -7 -16 -10 -8 -3 -12 -2 -9 4 6 10 25 14 25 6z
m3988 -42 c2 -1 -3 -3 -10 -6 -7 -2 -26 9 -43 25 l-30 28 40 -22 c22 -12 41
-23 43 -25z m-4039 9 c-13 -15 -11 -16 10 -10 17 4 21 3 13 -5 -5 -5 -20 -7
-32 -3 -20 6 -21 7 -3 21 24 18 28 17 12 -3z m21 -59 c0 -3 -9 0 -19 6 -11 5
-27 7 -37 3 -12 -4 -15 -3 -10 5 12 20 -7 13 -39 -13 -16 -13 -25 -24 -18 -25
6 0 15 5 18 10 4 6 12 4 22 -6 17 -17 16 -19 -29 -45 -20 -11 -24 1 -6 19 20
20 4 13 -32 -13 -21 -15 -36 -21 -40 -15 -7 12 -40 3 -40 -11 0 -5 -4 -9 -10
-9 -19 0 -10 15 20 32 17 9 30 13 30 8 0 -16 19 -11 42 10 20 18 20 20 4 20
-11 0 0 13 30 33 l49 33 33 -19 c17 -10 32 -21 32 -23z m4055 26 c8 -13 -5
-13 -25 0 -13 8 -13 10 2 10 9 0 20 -4 23 -10z m-532 -23 c18 -8 38 -22 46
-31 13 -15 9 -23 -39 -71 -30 -30 -51 -57 -47 -61 13 -14 59 8 75 36 11 20 25
30 41 30 21 0 23 -3 17 -32 -4 -18 -23 -49 -42 -69 -32 -33 -41 -37 -73 -32
-43 7 -91 34 -109 63 -7 11 -15 46 -18 78 -6 68 8 88 66 95 19 2 39 5 43 5 4
1 22 -4 40 -11z m-1888 -7 l20 -9 -20 1 c-11 0 -31 4 -45 8 l-25 8 25 0 c14 0
34 -3 45 -8z m815 -1 c-12 -8 -10 -10 10 -5 14 2 41 1 60 -4 24 -5 2 -7 -70
-5 -58 1 -87 1 -65 -2 22 -2 45 -9 50 -15 7 -7 -2 -9 -30 -4 -22 3 -89 9 -150
13 l-110 8 150 11 c83 6 155 11 160 12 6 1 3 -3 -5 -9z m87 5 c-3 -3 -12 -4
-19 -1 -8 3 -5 6 6 6 11 1 17 -2 13 -5z m-1012 -13 l-40 -7 48 -8 c26 -5 47
-10 45 -11 -2 -2 -41 -8 -88 -15 -47 -6 -94 -13 -105 -16 -17 -4 -18 -4 -4 5
10 6 48 15 85 20 l69 8 -70 3 -70 2 50 13 c28 7 66 13 85 12 l35 0 -40 -6z
m610 4 c-5 -2 -107 -5 -225 -7 -118 -2 -190 -1 -160 3 57 6 403 10 385 4z
m2009 -27 c-3 -4 -10 -8 -15 -8 -6 0 -7 5 -4 10 3 6 1 10 -4 10 -6 0 -11 5
-11 10 0 6 8 5 19 -2 11 -7 17 -16 15 -20z m-2455 6 c8 -7 -74 -2 -99 6 -16 5
-2 6 35 3 33 -3 62 -7 64 -9z m881 -15 c0 -5 -4 -8 -9 -5 -5 4 -11 3 -13 -2
-1 -4 -25 -6 -53 -3 l-50 5 55 7 c30 3 58 6 63 7 4 1 7 -3 7 -9z m1650 -40
c33 -22 60 -42 60 -44 0 -1 -7 -5 -14 -8 -10 -4 -13 -1 -10 7 5 14 -22 30 -36
21 -4 -3 -13 2 -20 10 -7 8 -9 15 -4 15 4 0 -1 6 -11 14 -11 8 -26 11 -34 8
-9 -3 -12 -1 -7 6 10 17 9 17 76 -29z m-99 13 c-7 -2 -18 1 -23 6 -8 8 -4 9
13 5 13 -4 18 -8 10 -11z m-2782 -6 c-2 -2 -22 -6 -44 -9 -28 -5 -34 -4 -20 3
19 8 73 14 64 6z m1376 -11 c53 -17 34 -18 -35 0 -30 7 -44 13 -30 13 14 0 43
-5 65 -13z m152 9 c-3 -3 -12 -4 -19 -1 -8 3 -5 6 6 6 11 1 17 -2 13 -5z m71
-1 c-10 -2 -18 -9 -18 -14 0 -13 24 -11 38 3 6 6 15 8 19 4 4 -4 1 -11 -6 -16
-12 -7 -12 -11 2 -24 8 -9 22 -16 29 -16 10 0 10 -2 -1 -9 -11 -7 -10 -10 5
-15 11 -3 28 -4 39 -2 11 2 34 7 50 10 l30 6 -30 -11 c-16 -7 -34 -15 -40 -19
-5 -4 -41 4 -80 17 -38 12 -58 21 -42 18 15 -3 27 -1 27 5 0 17 -29 23 -55 12
-25 -12 -112 8 -98 22 4 4 -6 5 -22 1 l-30 -6 32 15 c25 11 41 12 68 5 20 -6
35 -12 33 -15 -2 -2 -19 1 -38 6 -47 13 -50 4 -5 -14 29 -12 41 -13 51 -5 19
16 17 29 -3 30 -15 0 -15 2 2 9 11 5 29 8 40 8 17 0 17 -1 3 -5z m-1835 -10
c-7 -2 -19 -2 -25 0 -7 3 -2 5 12 5 14 0 19 -2 13 -5z m-1350 -24 c4 -3 0 -12
-9 -20 -16 -12 -17 -12 -11 4 3 9 2 17 -4 17 -6 0 -7 5 -4 11 4 6 10 7 14 2 3
-4 10 -10 14 -14z m1494 15 c-3 -3 -12 -4 -19 -1 -8 3 -5 6 6 6 11 1 17 -2 13
-5z m-80 -20 c-3 -3 -12 -4 -19 -1 -8 3 -5 6 6 6 11 1 17 -2 13 -5z m-1476
-18 c-7 -8 -13 -27 -14 -42 -1 -15 -9 -30 -16 -32 -10 -3 -12 0 -8 12 8 20 -6
21 -23 1 -7 -9 -18 -14 -24 -12 -6 3 -19 -2 -29 -11 -9 -8 -19 -13 -22 -10 -2
2 16 17 41 33 25 16 57 39 72 52 31 26 40 30 23 9z m1410 3 c-16 -6 -28 -6
-35 1 -7 7 1 10 25 9 32 0 33 -1 10 -10z m-1331 -9 c0 -5 -5 -10 -11 -10 -5 0
-7 5 -4 10 3 6 8 10 11 10 2 0 4 -4 4 -10z m1165 -20 c3 -5 14 -10 23 -10 15
0 15 2 2 10 -11 7 -5 10 24 10 22 0 37 -2 34 -5 -2 -3 -51 -20 -107 -39 -57
-18 -98 -29 -91 -22 6 6 37 19 68 28 48 15 51 17 17 13 -37 -5 -39 -4 -21 10
23 17 42 19 51 5z m2275 -10 c0 -25 4 -25 55 0 33 16 47 18 77 10 41 -12 63
-34 63 -64 0 -16 7 -22 30 -24 32 -4 60 -22 33 -22 -10 0 -16 -9 -17 -22 -1
-65 -1 -65 -55 -43 -35 15 -36 16 -20 40 15 23 12 45 -6 45 -5 0 -7 -7 -4 -15
4 -9 -2 -18 -17 -24 -13 -5 -18 -10 -10 -10 8 -1 12 -3 9 -6 -8 -8 -58 17 -53
25 3 5 -2 11 -11 14 -9 4 -13 2 -8 -5 4 -7 3 -10 -2 -8 -87 36 -124 54 -124
61 0 4 7 8 15 8 8 0 15 -5 15 -12 0 -6 6 -3 14 8 9 12 11 23 5 29 -12 12 -12
35 1 35 6 0 10 -9 10 -20z m1187 -42 c3 -7 -8 -2 -25 10 -17 13 -35 28 -39 34
-3 7 8 2 25 -10 17 -13 35 -28 39 -34z m-1277 32 c-8 -5 -19 -10 -25 -10 -5 0
-3 5 5 10 8 5 20 10 25 10 6 0 3 -5 -5 -10z m-2275 -10 c-11 -5 -27 -9 -35 -9
-13 -1 -13 0 0 9 8 5 24 9 35 9 l20 0 -20 -9z m2305 -4 c0 -2 -6 -9 -13 -15
-10 -8 -14 -7 -14 4 0 8 6 15 14 15 7 0 13 -2 13 -4z m-3510 -31 c0 -9 -6 -12
-15 -9 -8 4 -12 10 -9 15 8 14 24 10 24 -6z m4720 11 c0 -2 -7 -7 -16 -10 -8
-3 -12 -2 -9 4 6 10 25 14 25 6z m-4978 -30 c32 -7 69 -21 83 -30 18 -12 30
-14 43 -7 15 8 18 3 20 -50 l3 -59 -42 0 c-39 0 -41 1 -35 26 6 23 4 25 -16
19 -20 -6 -19 -4 5 13 16 11 25 22 19 26 -5 3 -19 -5 -31 -18 -20 -21 -21 -25
-6 -39 14 -15 13 -17 -7 -28 -20 -11 -22 -10 -10 3 20 25 -10 30 -39 6 -13
-11 -17 -16 -9 -12 13 7 13 6 1 -9 -8 -10 -16 -15 -19 -12 -3 3 -56 -45 -118
-106 -76 -75 -110 -117 -106 -127 3 -10 1 -13 -6 -8 -8 5 -10 2 -6 -8 3 -9 11
-13 17 -9 5 3 7 2 4 -3 -12 -20 12 -37 53 -37 27 0 37 -3 28 -8 -11 -7 -10
-11 2 -18 8 -6 11 -13 7 -17 -3 -4 -13 -1 -21 5 -10 9 -20 9 -34 2 -23 -12
-71 -3 -50 10 7 4 23 6 35 2 14 -3 23 -1 23 6 0 6 -11 11 -25 11 -14 0 -25 5
-25 11 0 5 -5 7 -10 4 -6 -4 -8 -11 -5 -16 4 -5 4 -9 1 -9 -2 0 -12 -3 -22 -7
-13 -5 -15 -3 -9 7 6 10 4 12 -9 7 -10 -4 -15 -3 -11 3 3 6 13 10 20 10 9 0
12 6 9 18 -5 14 -4 14 5 2 5 -8 13 -11 18 -7 4 5 1 12 -7 17 -16 10 -35 -2
-51 -32 -8 -15 -3 -21 36 -39 25 -12 51 -19 58 -16 8 3 20 1 28 -4 11 -7 10
-9 -6 -9 -11 0 14 -16 55 -35 41 -20 107 -51 145 -70 39 -19 71 -31 73 -26 2
5 13 6 24 3 21 -5 21 -6 2 -13 -16 -6 -15 -8 11 -14 17 -5 41 -16 54 -27 25
-19 46 -24 36 -8 -3 5 0 7 9 4 8 -3 21 -2 28 2 16 10 48 14 71 7 16 -4 15 -7
-7 -24 -13 -10 -28 -19 -33 -19 -4 0 1 7 11 15 11 8 17 18 13 21 -4 4 -13 1
-22 -6 -10 -9 -15 -9 -15 -1 0 8 -6 8 -20 -1 -19 -12 -19 -13 6 -26 77 -40
167 -134 210 -218 34 -68 39 -84 42 -170 3 -52 -1 -114 -7 -138 -37 -150 -368
-818 -568 -1151 -32 -52 -125 -153 -204 -222 -31 -27 -168 -91 -212 -100 -26
-5 -28 -7 -12 -13 13 -5 4 -7 -25 -7 -25 0 -94 -2 -155 -5 -64 -2 -115 0 -123
6 -9 6 -29 6 -60 -2 -53 -13 -214 -13 -172 0 20 6 18 7 -12 5 -20 -2 -34 1
-31 6 3 5 27 6 54 3 27 -4 57 -2 67 3 11 6 24 6 33 0 11 -7 8 -9 -10 -9 -13 0
-22 -2 -19 -5 3 -3 25 -2 49 1 44 7 44 7 14 16 -16 5 -41 10 -55 13 -14 2 -58
13 -99 24 -41 11 -88 18 -105 15 -24 -3 -26 -2 -11 4 17 8 14 10 -20 16 -105
18 -278 152 -339 261 -62 112 -86 242 -66 355 39 223 342 1121 455 1352 58
118 276 367 430 489 141 112 320 203 450 229 64 13 215 11 277 -4z m1388 -1
c-45 -17 -47 -17 -47 -2 0 7 16 12 41 13 l41 2 -35 -13z m3733 -24 c79 43 254
51 383 19 101 -25 276 -113 379 -190 147 -110 370 -348 402 -430 7 -19 22 -53
33 -75 108 -229 355 -940 441 -1273 32 -126 35 -185 14 -284 -22 -106 -70
-193 -150 -273 -38 -38 -83 -77 -100 -85 -50 -25 -52 -30 -43 -83 5 -27 7 -58
5 -70 -3 -13 -5 -7 -6 15 0 20 -8 43 -16 52 -10 9 -11 17 -5 21 13 8 3 25 -13
25 -7 0 -7 -4 2 -9 12 -8 9 -11 -12 -16 -15 -4 -25 -11 -22 -15 3 -5 -5 -6
-16 -3 -20 6 -20 7 7 20 16 7 20 11 9 7 -11 -3 -57 -15 -102 -27 -46 -11 -83
-25 -83 -30 0 -5 10 -7 23 -3 53 15 72 17 57 8 -28 -18 -82 -25 -90 -12 -6 9
-15 10 -36 2 -16 -6 -22 -11 -13 -11 24 -1 49 -45 49 -85 0 -30 -3 -34 -32
-39 -18 -3 -64 -3 -103 1 -38 4 -87 6 -108 4 -37 -3 -38 -5 -31 -30 14 -44 9
-128 -11 -171 -10 -22 -21 -38 -26 -36 -4 3 -9 2 -11 -3 -1 -4 -18 -18 -35
-31 -18 -12 -33 -29 -33 -37 0 -10 -12 -14 -40 -14 -29 0 -40 4 -40 15 0 8 -7
15 -15 15 -8 0 -15 4 -15 9 0 5 7 11 15 15 8 3 15 12 15 20 0 13 -7 11 -36 -6
l-35 -21 -29 28 c-59 56 -73 141 -36 215 17 34 4 40 -21 10 -20 -24 -38 -26
-29 -5 4 11 -2 15 -24 15 -20 0 -30 5 -30 15 0 17 28 65 45 77 6 5 6 8 -2 8
-6 0 -15 -5 -18 -10 -4 -6 -11 -8 -16 -4 -17 10 12 35 32 29 24 -8 25 10 2 25
-16 10 -16 11 2 5 11 -3 32 -9 48 -12 15 -3 27 -9 27 -13 0 -11 53 -19 69 -10
9 5 1 10 -25 14 -22 4 -65 21 -97 37 -63 32 -83 37 -52 13 l20 -16 -20 4 c-13
2 -19 11 -18 24 1 13 -12 28 -42 47 -126 80 -248 268 -503 774 -98 193 -235
498 -259 573 -19 60 -17 182 3 250 30 104 107 208 191 257 24 14 43 29 43 33
0 5 -12 18 -26 29 -15 12 -22 21 -17 21 5 0 14 -5 21 -12 8 -8 15 -8 28 3 14
11 16 11 10 0 -7 -10 -3 -11 15 -5 13 4 32 7 43 6 22 -1 209 85 214 99 2 5 13
9 25 9 12 1 33 8 47 16 17 10 18 13 5 8 -11 -3 -29 -8 -40 -9 -14 -2 -15 -1
-2 2 9 2 15 9 12 14 -3 5 1 6 10 3 10 -4 15 -2 13 7 -2 10 8 15 32 16 l35 1
-35 -8 c-31 -6 -32 -8 -8 -9 15 0 58 14 95 33 37 18 82 39 99 47 l32 13 -47
50 c-87 94 -101 107 -110 102 -4 -3 -17 4 -27 17 l-19 22 23 -19 c12 -11 22
-15 22 -10 0 10 -118 128 -214 212 -45 41 -61 50 -72 41 -7 -6 -18 -8 -25 -4
-8 6 -8 9 0 14 8 5 5 13 -9 26 -11 10 -23 15 -28 10 -4 -4 -1 -10 6 -12 6 -3
12 -10 12 -16 0 -7 -6 -5 -15 4 -9 9 -13 23 -9 32 5 15 10 14 36 -8 25 -21 33
-23 51 -14z m-3848 19 c-3 -5 -10 -10 -16 -10 -5 0 -9 5 -9 10 0 6 7 10 16 10
8 0 12 -4 9 -10z m50 0 c-3 -5 -12 -10 -18 -10 -7 0 -6 4 3 10 19 12 23 12 15
0z m-35 -30 c13 -9 13 -10 0 -11 -8 -1 -19 -1 -23 0 -4 1 -15 -5 -23 -14 -9
-8 -20 -15 -25 -15 -6 0 2 11 17 25 30 28 33 29 54 15z m2860 -10 c0 -13 -7
-20 -20 -20 -13 0 -20 7 -20 20 0 13 7 20 20 20 13 0 20 -7 20 -20z m895 -10
c3 -5 1 -10 -4 -10 -6 0 -11 5 -11 10 0 6 2 10 4 10 3 0 8 -4 11 -10z m-3910
-10 c-3 -5 -15 -10 -26 -10 -11 0 -17 5 -14 10 3 6 15 10 26 10 11 0 17 -4 14
-10z m4021 -54 c-1 -21 -26 -26 -26 -6 0 5 6 10 13 13 8 3 5 10 -10 22 -13 9
-23 21 -23 27 0 6 11 1 24 -11 13 -12 23 -33 22 -45z m-4096 39 c0 -8 -4 -15
-10 -15 -5 0 -10 7 -10 15 0 8 5 15 10 15 6 0 10 -7 10 -15z m107 -1 c-3 -3
-12 -4 -19 -1 -8 3 -5 6 6 6 11 1 17 -2 13 -5z m-65 -42 c-9 -2 -23 -11 -29
-20 -7 -8 -15 -13 -18 -11 -2 3 7 18 22 33 20 22 27 25 34 14 6 -9 3 -14 -9
-16z m-52 8 c0 -5 -7 -10 -15 -10 -8 0 -15 5 -15 10 0 6 7 10 15 10 8 0 15 -4
15 -10z m3060 0 c0 -5 -4 -10 -10 -10 -5 0 -10 5 -10 10 0 6 5 10 10 10 6 0
10 -4 10 -10z m1090 -14 c0 -3 -4 -8 -10 -11 -5 -3 -10 -1 -10 4 0 6 5 11 10
11 6 0 10 -2 10 -4z m-4220 -36 c-14 -10 -27 -17 -29 -15 -8 8 22 35 38 35 12
0 10 -5 -9 -20z m3218 6 c-7 -7 -19 -11 -27 -8 -11 4 -10 7 5 13 29 12 36 10
22 -5z m1066 -35 c43 -45 25 -38 -26 10 -23 22 -34 36 -23 31 11 -6 33 -24 49
-41z m-4234 24 c0 -2 -18 -14 -40 -25 -22 -11 -40 -16 -40 -11 0 5 17 16 38
24 44 19 42 18 42 12z m4205 -43 c-6 -6 -45 28 -45 39 0 5 11 -1 25 -13 14
-12 23 -24 20 -26z m-5253 26 c-16 -16 -15 -31 1 -22 6 4 9 3 4 -1 -4 -5 -16
-9 -27 -10 -20 -2 -20 -1 2 22 12 12 24 23 27 23 3 0 0 -5 -7 -12z m4243 -6
c-3 -3 -11 0 -18 7 -9 10 -8 11 6 5 10 -3 15 -9 12 -12z m-4295 -15 c0 -2 -10
-12 -22 -23 l-23 -19 19 23 c18 21 26 27 26 19z m4400 -1 c0 -9 -40 -13 -46
-5 -3 5 6 9 20 9 14 0 26 -2 26 -4z m-3425 -36 c-16 -11 -34 -20 -40 -20 -5 0
4 9 20 20 17 11 35 20 40 20 6 0 -3 -9 -20 -20z m3460 8 c14 -6 25 -15 25 -20
0 -13 -16 -9 -30 7 -7 8 -22 15 -34 15 -16 0 -11 -6 22 -26 44 -26 59 -44 20
-23 -47 25 -68 41 -62 50 7 12 28 11 59 -3z m-3515 -8 c0 -5 -4 -10 -10 -10
-5 0 -10 5 -10 10 0 6 5 10 10 10 6 0 10 -4 10 -10z m-970 -13 c0 -2 -17 -19
-37 -38 l-38 -34 34 38 c33 34 41 42 41 34z m25 -19 c-1 -14 -9 -22 -23 -23
l-22 -2 22 24 c26 28 25 28 23 1z m940 2 c3 -5 1 -10 -4 -10 -6 0 -11 5 -11
10 0 6 2 10 4 10 3 0 8 -4 11 -10z m-120 -30 c-3 -5 -12 -10 -18 -10 -7 0 -6
4 3 10 19 12 23 12 15 0z m43 -7 c-10 -2 -18 -8 -18 -12 0 -4 -7 -8 -16 -8
-14 0 -14 2 2 14 10 7 25 12 33 12 13 -1 12 -2 -1 -6z m3672 3 c0 -3 -4 -8
-10 -11 -5 -3 -10 -1 -10 4 0 6 5 11 10 11 6 0 10 -2 10 -4z m140 -79 c0 4 4
3 8 -3 4 -5 18 -18 32 -28 l25 -17 -30 7 c-28 7 -29 6 -15 -11 14 -17 14 -17
-8 -4 -12 8 -18 15 -12 17 20 7 10 24 -11 19 -12 -3 -18 -3 -15 0 8 9 -80 73
-101 73 -15 0 -15 2 -4 9 10 7 32 -2 73 -30 32 -22 58 -36 58 -32z m-4755 31
c-1 -14 -9 -22 -23 -23 l-22 -2 22 24 c26 28 25 28 23 1z m5628 -37 c-4 -4
-11 -10 -14 -14 -4 -5 -6 3 -5 16 1 20 4 23 14 15 7 -6 9 -14 5 -17z m-4783
-8 c-14 -9 -29 -22 -35 -29 -5 -6 -21 -14 -34 -17 -23 -6 -23 -5 -4 11 24 21
75 51 88 52 5 0 -2 -8 -15 -17z m4818 -21 c6 -18 -15 -14 -22 4 -4 10 -1 14 6
12 6 -2 14 -10 16 -16z m-20 -20 c5 -17 -27 -27 -41 -12 -10 10 -8 12 7 6 14
-5 17 -2 12 10 -4 10 -1 14 6 12 6 -2 14 -10 16 -16z m48 -29 c-3 -4 -6 -1 -6
5 0 7 -7 9 -17 5 -15 -6 -16 -5 -3 9 13 14 16 14 23 1 5 -8 6 -17 3 -20z
m-4981 7 c3 -5 1 -10 -4 -10 -6 0 -11 5 -11 10 0 6 2 10 4 10 3 0 8 -4 11 -10z
m4122 -2 c3 6 9 9 15 6 6 -4 5 -10 -3 -15 -7 -4 -10 -11 -6 -15 4 -4 16 1 27
11 17 16 20 16 15 3 -12 -30 -37 -30 -64 -2 -14 16 -17 21 -7 13 15 -11 20
-11 23 -1z m-4087 -13 c-7 -9 -15 -13 -19 -10 -3 3 1 10 9 15 21 14 24 12 10
-5z m4915 -4 c-6 -5 -23 -12 -40 -15 -28 -6 -28 -5 5 8 43 18 46 18 35 7z
m-4966 -30 c-13 -11 -26 -17 -28 -15 -5 5 30 33 43 34 4 0 -2 -9 -15 -19z
m-637 -51 c9 0 9 3 -2 10 -11 8 -8 9 13 4 16 -4 27 -2 27 4 0 6 18 1 39 -11
31 -17 37 -24 25 -30 -9 -5 -18 -6 -21 -3 -4 3 0 6 8 6 11 0 11 2 -1 10 -20
13 -83 13 -75 0 3 -5 16 -11 28 -11 16 -1 17 -3 5 -6 -15 -4 -118 41 -118 52
0 3 13 -1 30 -10 16 -8 35 -15 42 -15z m588 -5 c0 -5 -4 -4 -9 4 -5 8 -16 11
-27 7 -18 -6 -17 -5 0 9 20 15 36 6 36 -20z m4317 3 c1 -10 -2 -20 -8 -23 -5
-3 -6 0 -3 8 6 16 -22 31 -38 20 -6 -3 -8 -1 -5 4 11 18 53 10 54 -9z m-4380
-54 c-11 -13 -26 -20 -35 -17 -11 5 -13 3 -7 -6 6 -10 3 -11 -13 -2 -32 17
-38 13 -13 -8 l22 -19 -24 2 c-17 1 -23 7 -22 21 1 15 10 20 36 22 53 2 54 2
42 14 -16 16 6 41 22 25 8 -7 6 -16 -8 -32z m-415 9 c-6 -2 -9 -10 -6 -15 4
-7 2 -8 -5 -4 -13 9 -5 26 12 25 9 0 8 -2 -1 -6z m5112 -24 c-29 -12 -36 -10
-22 5 7 7 19 11 27 8 11 -4 10 -7 -5 -13z m-243 -6 c13 -16 12 -17 -3 -5 -9 8
-23 10 -29 6 -8 -4 -9 -3 -5 4 10 17 21 15 37 -5z m89 -18 c0 -19 -2 -35 -4
-35 -2 0 -6 16 -8 35 -2 19 0 35 4 35 4 0 8 -16 8 -35z m205 16 c-63 -28 -95
-34 -40 -7 28 13 57 24 65 24 8 1 -3 -7 -25 -17z m-294 -28 c13 -16 12 -17 -3
-4 -10 7 -18 15 -18 17 0 8 8 3 21 -13z m-5082 -2009 c2 -2 -4 -4 -15 -5 -18
0 -18 -1 1 -9 19 -8 19 -9 -2 -9 -12 -1 -25 4 -28 10 -4 6 -14 7 -24 4 -9 -4
-27 -9 -40 -11 l-24 -5 24 20 c18 14 34 18 64 14 22 -2 42 -6 44 -9z m96 -13
c26 -6 31 -9 15 -9 -14 -1 -43 3 -65 7 -26 6 -31 9 -15 9 14 1 43 -3 65 -7z
m5560 -1 c-3 -5 -14 -10 -23 -9 -14 0 -13 2 3 9 27 11 27 11 20 0z m50 0 c-3
-5 -10 -10 -16 -10 -5 0 -9 5 -9 10 0 6 7 10 16 10 8 0 12 -4 9 -10z m-6743
-30 c-2 -16 -5 -30 -7 -30 -2 0 -5 14 -7 30 -3 19 0 30 7 30 7 0 10 -11 7 -30z
m233 -16 c28 -10 31 -13 10 -9 -71 14 -106 23 -112 29 -9 9 55 -4 102 -20z
m6295 16 c0 -5 -19 -9 -42 -9 l-43 2 40 7 c22 4 41 8 43 9 1 0 2 -3 2 -9z m43
3 c-7 -2 -19 -2 -25 0 -7 3 -2 5 12 5 14 0 19 -2 13 -5z m-5134 -19 c8 -7 -54
-2 -79 6 -17 6 -9 7 25 3 28 -3 52 -7 54 -9z m5211 0 c0 -2 -11 -4 -25 -4 -14
0 -25 4 -25 9 0 4 11 6 25 3 14 -2 25 -6 25 -8z m-5810 -4 c-13 -8 -13 -10 0
-10 10 0 11 -3 3 -11 -6 -6 -25 -8 -49 -3 l-39 7 40 13 c50 15 64 16 45 4z
m5585 0 c-16 -6 -12 -9 20 -12 22 -3 0 -3 -49 -2 -48 2 -91 6 -95 10 -3 4 10
4 29 0 19 -3 42 -1 50 4 8 5 26 9 40 9 23 0 23 -1 5 -9z m355 0 c0 -5 -2 -10
-4 -10 -3 0 -8 5 -11 10 -3 6 -1 10 4 10 6 0 11 -4 11 -10z m-6633 -6 c-3 -3
-12 -4 -19 -1 -8 3 -5 6 6 6 11 1 17 -2 13 -5z m1186 -1 c-18 -2 -48 -2 -65 0
-18 2 -4 4 32 4 36 0 50 -2 33 -4z m184 1 c-3 -3 -12 -4 -19 -1 -8 3 -5 6 6 6
11 1 17 -2 13 -5z m5041 -1 c-10 -2 -28 -2 -40 0 -13 2 -5 4 17 4 22 1 32 -1
23 -4z m1008 -4 c-15 -9 -16 -13 -5 -21 11 -8 10 -8 -4 -4 -10 3 -28 6 -40 6
-19 1 -18 3 8 15 37 17 69 20 41 4z m-7544 -41 c-10 -22 -11 -21 -11 12 -1 26
2 31 11 22 8 -8 8 -17 0 -34z m1568 28 l75 1 -70 -12 c-38 -6 -75 -8 -81 -3
-6 4 -40 10 -75 12 -46 4 -53 3 -24 -3 l40 -7 -42 -5 c-24 -2 -43 -1 -43 3 0
5 -10 9 -22 9 -19 1 -18 3 7 10 17 4 59 5 95 1 36 -4 99 -6 140 -6z m-7 7 c-7
-2 -21 -2 -30 0 -10 3 -4 5 12 5 17 0 24 -2 18 -5z m4637 -13 c11 -7 5 -8 -20
-4 -43 8 -51 14 -19 14 13 0 31 -5 39 -10z m93 3 c-7 -2 -21 -2 -30 0 -10 3
-4 5 12 5 17 0 24 -2 18 -5z m214 1 c-3 -3 -12 -4 -19 -1 -8 3 -5 6 6 6 11 1
17 -2 13 -5z m-4652 -23 c77 -11 121 -19 97 -20 -24 -1 -73 4 -110 9 -37 6
-94 14 -127 19 -33 5 -46 9 -30 9 17 1 93 -7 170 -17z m4095 -12 c-79 -10
-218 -18 -198 -12 36 9 233 29 243 24 6 -3 -15 -9 -45 -12z m-3895 -20 c-21
-5 -12 -7 30 -3 33 2 94 0 135 -5 41 -6 117 -12 169 -15 51 -3 96 -7 99 -10 3
-4 -7 -6 -23 -6 -27 0 -27 -1 -12 -18 16 -17 15 -20 -6 -40 l-23 -22 -39 40
c-24 25 -48 40 -63 40 -21 0 -22 -2 -12 -15 7 -8 19 -15 27 -15 8 0 12 -4 9
-9 -3 -4 6 -19 19 -31 14 -13 25 -28 25 -34 0 -21 -44 -56 -72 -56 -22 0 -28
-5 -28 -20 0 -35 -28 -77 -60 -90 l-31 -13 38 -39 37 -38 -22 -22 -22 -23
-112 112 c-111 111 -112 112 -93 133 10 11 24 20 30 20 7 0 16 11 19 25 7 29
59 65 94 65 18 0 22 6 22 30 0 37 -3 38 -110 44 -161 9 -160 9 -100 16 30 4
66 7 80 7 22 1 22 0 -5 -8z m3853 -6 c-10 -2 -26 -2 -35 0 -10 3 -2 5 17 5 19
0 27 -2 18 -5z m-5928 -24 c0 -11 -4 -18 -10 -14 -5 3 -7 12 -3 20 7 21 13 19
13 -6z m5588 14 c-10 -2 -28 -2 -40 0 -13 2 -5 4 17 4 22 1 32 -1 23 -4z m249
1 c-3 -3 -12 -4 -19 -1 -8 3 -5 6 6 6 11 1 17 -2 13 -5z m210 0 c-3 -3 -12 -4
-19 -1 -8 3 -5 6 6 6 11 1 17 -2 13 -5z m1710 -161 c-2 -32 -3 -6 -3 57 0 63
1 89 3 58 2 -32 2 -84 0 -115z m-7720 20 c-2 -27 -3 -5 -3 47 0 52 1 74 3 48
2 -27 2 -69 0 -95z m5456 130 c-18 -2 -48 -2 -65 0 -18 2 -4 4 32 4 36 0 50
-2 33 -4z m400 0 c-7 -2 -21 -2 -30 0 -10 3 -4 5 12 5 17 0 24 -2 18 -5z m107
-1 c0 -4 -18 -6 -40 -4 -22 2 -40 6 -40 8 0 2 18 4 40 4 22 0 40 -3 40 -8z
m-3917 -9 c-7 -2 -19 -2 -25 0 -7 3 -2 5 12 5 14 0 19 -2 13 -5z m474 1 c-3
-3 -12 -4 -19 -1 -8 3 -5 6 6 6 11 1 17 -2 13 -5z m2796 -1 c-13 -2 -35 -2
-50 0 -16 2 -5 4 22 4 28 0 40 -2 28 -4z m2384 -165 c-2 -35 -3 -9 -3 57 0 66
1 94 3 63 2 -32 2 -86 0 -120z m-2670 142 c-39 -12 -187 -20 -187 -10 0 4 37
9 82 9 44 0 83 3 86 6 3 3 15 5 26 4 17 -1 15 -2 -7 -9z m-1742 -16 c116 -4
212 -9 215 -11 3 -3 -112 -2 -255 2 -143 4 -329 9 -414 11 -85 2 -157 7 -160
10 -3 4 86 4 199 0 113 -3 300 -9 415 -12z m1529 10 c9 -3 14 -10 11 -14 -3
-5 18 -11 47 -15 36 -5 53 -4 56 4 2 7 30 10 75 9 71 -2 71 -2 14 -5 -33 -2
-60 -9 -63 -16 -4 -13 -62 -14 -149 -4 -28 4 -39 3 -25 -1 21 -6 26 -15 28
-50 l3 -42 -134 0 -135 0 -4 44 -3 44 45 6 c25 3 87 9 138 12 50 4 92 9 92 13
0 3 -62 6 -137 5 l-138 -1 125 7 c69 3 128 7 132 8 3 1 13 -1 22 -4z m-4877
-216 c-1 -40 -3 -8 -3 72 0 80 2 112 3 73 2 -40 2 -106 0 -145z m4471 196 c-7
-7 -219 -6 -226 1 -3 3 48 5 113 5 65 0 116 -3 113 -6z m-365 -11 c-62 -2
-165 -2 -230 0 -65 1 -14 3 112 3 127 0 180 -2 118 -3z m-1180 -10 c-24 -2
-62 -2 -85 0 -24 2 -5 4 42 4 47 0 66 -2 43 -4z m560 0 c-23 -2 -64 -2 -90 0
-26 2 -7 3 42 3 50 0 71 -1 48 -3z m1590 0 c-7 -2 -19 -2 -25 0 -7 3 -2 5 12
5 14 0 19 -2 13 -5z m1777 -73 c0 -11 7 -37 15 -56 18 -43 8 -68 -12 -30 -11
21 -19 25 -38 20 -19 -5 -25 -2 -25 10 0 9 8 16 20 16 16 0 20 7 20 30 0 17 5
30 10 30 6 0 10 -9 10 -20z m-4762 -120 c17 -11 32 -23 32 -28 0 -5 -24 -34
-52 -65 -39 -41 -49 -57 -37 -60 18 -5 63 30 72 56 4 10 17 17 32 17 25 0 26
-2 20 -32 -4 -18 -23 -49 -43 -70 -36 -35 -39 -36 -86 -28 -37 5 -57 15 -78
39 -50 56 -49 111 2 162 35 35 89 39 138 9z m5674 -166 c-6 -11 -8 -4 -6 23 7
127 8 129 11 60 2 -37 0 -74 -5 -83z m-7724 -65 c-2 -33 1 -55 6 -51 5 3 6 -2
3 -12 -4 -10 -7 -25 -7 -34 -1 -41 -19 16 -20 63 -2 65 13 163 18 121 2 -16 2
-55 0 -87z m33 -8 c0 -25 -4 -58 -8 -73 -6 -19 -9 2 -10 70 -1 69 1 90 8 73 5
-13 10 -45 10 -70z m1845 68 c19 -11 34 -24 34 -28 0 -4 -25 -31 -55 -61 -38
-38 -51 -56 -42 -62 6 -4 15 -8 18 -8 11 0 55 45 62 63 4 10 17 17 32 17 25 0
26 -2 20 -32 -4 -18 -20 -47 -36 -64 -24 -25 -38 -31 -80 -33 -45 -2 -53 1
-84 32 -57 57 -59 115 -5 168 35 36 87 39 136 8z m-198 -118 c2 -13 -1 -28 -7
-34 -23 -23 -11 -59 39 -111 50 -53 50 -53 30 -71 -20 -19 -22 -18 -100 60
-75 74 -79 80 -63 97 9 10 22 18 30 18 7 0 13 6 13 13 0 20 31 58 43 54 7 -2
14 -14 15 -26z m-195 -39 c15 -17 15 -19 -3 -35 -24 -20 -25 -27 -6 -53 14
-19 15 -18 40 5 25 23 28 24 43 8 16 -15 15 -18 -7 -42 l-24 -25 62 -63 63
-63 -21 -19 c-20 -19 -21 -18 -80 40 -53 52 -63 58 -79 48 -15 -10 -22 -9 -35
6 -15 16 -15 20 -1 31 13 11 12 16 -10 42 -33 39 -32 78 1 112 32 31 36 32 57
8z m-1472 -59 c-10 -17 -10 -16 -11 3 0 23 13 41 18 25 2 -6 -1 -18 -7 -28z
m7656 -70 c8 -23 13 -47 10 -55 -3 -8 -6 -5 -7 7 0 11 -7 29 -15 39 -8 11 -14
38 -14 60 1 27 3 32 6 16 2 -14 11 -44 20 -67z m-7640 -20 c-3 -10 -5 -4 -5
12 0 17 2 24 5 18 2 -7 2 -21 0 -30z m7627 -66 c-6 -18 -7 -18 -15 -4 -5 9 -6
29 -3 44 l7 27 9 -24 c5 -12 6 -32 2 -43z m-7625 1 c1 -5 -3 -8 -9 -8 -5 0
-10 12 -9 28 0 24 1 25 9 7 5 -11 9 -23 9 -27z m1247 8 c-5 -20 -2 -25 16 -28
12 -2 24 -9 26 -17 4 -10 -1 -12 -19 -8 -13 4 -43 7 -66 7 -47 0 -59 17 -15
22 19 2 28 9 30 26 2 12 10 22 19 22 11 0 14 -6 9 -24z m6385 -72 c-5 -21 -9
-30 -10 -19 -1 24 10 67 15 62 3 -2 0 -22 -5 -43z m-24 -11 c-3 -10 -5 -2 -5
17 0 19 2 27 5 18 2 -10 2 -26 0 -35z m-6592 0 c12 -16 14 -16 40 1 41 27 42
11 1 -34 -36 -40 -44 -64 -26 -75 6 -3 10 1 10 9 0 31 75 93 127 105 84 20
180 -17 170 -65 -2 -13 0 -24 4 -24 5 0 9 6 10 13 0 10 2 10 6 0 2 -7 10 -13
17 -13 7 0 17 -23 22 -51 9 -42 8 -52 -3 -56 -20 -8 3 -23 35 -23 12 0 22 -4
22 -10 0 -5 -10 -10 -22 -11 -22 0 -22 -1 2 -10 26 -11 124 -39 150 -44 8 -1
27 -7 42 -13 15 -6 35 -9 45 -5 10 4 14 2 10 -4 -9 -14 36 -25 67 -17 13 3 39
-1 59 -9 19 -9 38 -12 42 -9 10 10 74 9 68 -1 -3 -5 -19 -5 -36 -2 -24 5 -28
4 -17 -4 24 -17 -10 -14 -55 5 -20 8 -42 13 -48 11 -10 -4 117 -47 148 -51 6
0 13 -5 16 -9 4 -5 24 -10 47 -10 22 -1 38 -6 35 -11 -3 -4 5 -5 17 -1 15 5
20 3 16 -3 -4 -7 5 -10 26 -8 18 2 24 1 13 -1 -16 -4 87 -41 160 -57 6 -1 53
-16 105 -34 154 -49 226 -64 269 -52 24 6 57 6 96 0 33 -5 62 -10 65 -10 3 0
-2 -5 -10 -10 -11 -7 -7 -10 20 -11 25 -1 29 -3 11 -6 -12 -3 -35 -2 -49 2
-20 5 -23 8 -12 15 9 5 -17 8 -65 7 l-80 -1 115 -29 c81 -20 141 -28 202 -28
48 -1 100 -5 115 -9 20 -7 9 -8 -37 -5 -43 3 -18 -3 75 -19 106 -18 169 -23
260 -21 100 2 106 1 35 -4 l-85 -6 70 -7 c210 -22 502 -29 749 -19 140 6 266
15 278 20 13 5 39 7 58 5 19 -2 27 -1 18 2 -39 12 -15 21 28 11 32 -8 51 -8
62 0 10 6 32 8 51 5 26 -4 32 -2 26 8 -6 10 -1 12 21 7 42 -8 296 35 264 45
-20 6 -18 7 8 3 18 -3 84 6 145 20 150 33 173 40 167 51 -5 10 76 54 100 54
13 0 13 -2 1 -9 -11 -7 -10 -10 5 -13 10 -3 2 -5 -19 -4 -24 0 -44 -7 -55 -18
-16 -18 -16 -18 3 -12 11 4 31 10 45 12 66 12 238 69 233 77 -3 6 -1 7 5 3 6
-4 23 -4 37 0 20 5 23 9 14 20 -9 11 -8 14 7 14 16 0 17 2 4 11 -11 8 -9 9 10
3 14 -3 30 -10 35 -14 6 -4 21 -3 35 1 l25 7 -25 2 c-57 4 -55 15 2 16 43 1
56 -2 43 -8 -15 -6 -13 -7 9 -3 16 4 43 12 60 20 l31 14 -30 -6 c-39 -8 -27 5
22 22 l38 14 -35 2 -35 1 39 8 c22 4 50 4 64 1 23 -6 22 -8 -17 -20 -57 -17
-46 -25 13 -10 49 12 56 29 15 40 -24 7 -24 7 4 8 15 1 30 1 33 0 4 0 10 5 14
11 6 9 13 9 30 -2 18 -10 24 -10 27 0 3 6 17 12 31 12 18 0 35 10 50 29 21 27
27 29 85 27 34 0 68 -5 76 -10 10 -7 12 -6 6 4 -6 10 -4 12 7 7 9 -3 35 0 59
6 41 10 42 11 19 19 -17 5 -11 6 20 3 28 -2 38 -1 25 4 -16 7 -15 9 13 14 17
4 40 4 49 1 16 -5 15 -3 -1 10 -11 9 -36 16 -55 17 -33 0 -34 1 -12 10 17 7
32 5 53 -5 20 -10 37 -12 53 -6 12 5 31 7 41 4 11 -2 53 7 94 21 41 14 65 23
53 21 -13 -2 -23 0 -23 5 0 5 -21 9 -47 10 l-48 1 44 14 c29 9 49 10 61 4 10
-5 33 -7 52 -5 30 5 31 4 9 -5 -13 -6 -22 -12 -20 -14 4 -5 176 44 219 62 24
10 23 11 -20 18 l-45 7 55 13 c62 14 80 11 29 -5 l-34 -11 32 5 c37 5 59 -19
42 -46 -5 -7 -8 -33 -7 -56 1 -23 -2 -46 -7 -50 -4 -4 -5 -2 -1 5 4 6 3 12 -3
12 -5 0 -13 -15 -17 -32 -3 -18 -22 -78 -40 -133 -36 -107 -39 -118 -24 -95 8
12 10 12 10 -5 0 -11 -5 -27 -10 -35 -8 -12 -10 -12 -10 5 -1 11 -15 -9 -31
-45 -24 -49 -31 -79 -31 -125 -1 -60 -1 -60 -8 -15 -5 31 -7 37 -8 17 -1 -17
-6 -26 -13 -22 -6 4 -1 -11 10 -32 15 -31 17 -40 6 -40 -8 0 -13 3 -12 6 0 3
-3 17 -7 29 -7 22 -9 21 -30 -23 -18 -36 -22 -61 -20 -111 l2 -65 -29 5 c-35
5 -62 -17 -54 -45 4 -13 2 -17 -7 -14 -20 8 -51 -51 -44 -81 4 -15 3 -23 -2
-20 -12 7 -36 -20 -28 -33 3 -5 -2 -19 -12 -32 -32 -38 -32 -6 -1 39 41 61 36
67 -7 7 -77 -107 -105 -155 -99 -165 4 -6 1 -18 -6 -26 -6 -8 -9 -17 -5 -21
11 -11 35 31 31 52 -3 11 2 5 11 -14 18 -40 14 -46 -34 -46 -21 0 -36 -5 -35
-11 1 -6 -5 -11 -13 -11 -9 0 -3 12 17 34 18 18 30 35 27 38 -3 4 -26 -20 -51
-52 -25 -33 -52 -65 -61 -72 -12 -10 -13 -17 -5 -27 7 -9 7 -19 -1 -33 -13
-26 -16 -26 -16 -2 0 11 4 17 8 15 4 -3 8 0 8 5 0 6 -4 11 -9 11 -12 0 -111
-107 -111 -121 0 -8 4 -8 15 1 8 7 12 17 8 23 -3 5 -1 7 5 3 11 -6 27 10 27
28 0 5 17 10 38 11 l37 1 0 -42 0 -42 -46 -4 c-40 -3 -45 -1 -40 15 4 18 4 18
-14 2 -10 -9 -24 -14 -30 -10 -16 10 -40 -14 -33 -33 3 -12 2 -13 -4 -4 -7 9
-17 4 -39 -20 l-29 -32 30 19 30 18 -19 -22 c-11 -11 -16 -24 -12 -28 4 -4 15
3 25 15 17 24 17 24 20 -27 l2 -51 -47 0 c-47 0 -47 0 -28 21 15 17 16 22 4
29 -14 9 -44 -2 -55 -19 -3 -5 0 -13 6 -17 8 -5 9 -3 4 6 -6 9 -4 11 5 5 9 -6
11 -4 5 5 -5 8 -4 11 3 6 5 -3 13 0 15 6 3 8 6 8 6 2 1 -6 -8 -19 -19 -29 -15
-14 -23 -16 -31 -8 -15 15 -92 -54 -84 -74 3 -8 0 -11 -6 -8 -14 9 -76 -40
-76 -59 0 -22 10 -20 32 4 17 18 17 20 2 14 -23 -8 -22 3 2 15 16 9 18 6 17
-19 -1 -16 -5 -32 -10 -37 -5 -4 -6 -3 -2 5 9 16 -6 16 -23 0 -10 -11 -15 -10
-25 4 -11 15 -16 13 -54 -21 -23 -21 -43 -36 -45 -34 -2 2 -10 -3 -17 -12 -7
-9 -8 -15 -2 -15 6 0 12 5 14 12 3 8 6 7 10 -4 5 -11 0 -15 -15 -15 -44 -1
-53 -4 -87 -34 -28 -25 -29 -28 -8 -15 27 16 28 16 25 -4 -4 -28 -11 -32 -38
-22 -18 7 -34 3 -72 -21 -26 -16 -46 -32 -43 -34 3 -3 15 2 28 11 25 18 42 21
33 6 -3 -5 -2 -10 2 -10 5 0 9 -9 10 -20 2 -24 -6 -25 -53 -5 -20 8 -41 12
-47 8 -7 -4 -2 -10 13 -14 19 -5 15 -6 -16 -6 -28 1 -49 -6 -70 -22 -28 -23
-28 -23 -4 -16 32 9 25 3 -20 -20 -34 -17 -34 -17 -20 0 12 15 8 14 -30 -5
-56 -28 -103 -61 -96 -67 2 -3 25 9 50 27 36 24 50 29 64 21 12 -8 13 -10 3
-11 -26 0 -101 -42 -95 -52 4 -7 0 -7 -12 0 -11 5 -26 7 -34 5 -13 -4 -13 -3
0 6 20 14 7 14 -24 0 -14 -7 -23 -16 -19 -22 3 -6 1 -7 -5 -3 -6 4 -24 -1 -39
-11 -15 -10 -30 -17 -33 -16 -13 6 -40 -9 -34 -19 4 -6 2 -8 -3 -5 -11 7 -102
-20 -118 -35 -6 -6 0 -6 15 0 14 5 48 13 75 17 58 8 72 15 55 25 -6 4 3 7 20
8 17 0 28 -4 24 -9 -3 -5 -8 -7 -12 -5 -4 2 -12 -2 -19 -9 -10 -10 -9 -14 2
-19 8 -3 15 -1 15 5 0 6 5 9 11 7 6 -2 10 -8 10 -13 -1 -14 -34 -16 -58 -4
-35 18 -53 5 -53 -40 l0 -39 -84 1 c-46 1 -82 5 -80 9 3 4 -4 12 -15 18 -16 8
-34 6 -78 -9 -32 -11 -49 -20 -39 -21 37 0 5 -13 -42 -17 -70 -5 -72 -5 -65
-16 4 -6 0 -8 -10 -4 -9 3 -43 1 -74 -5 -43 -9 -52 -13 -37 -19 10 -4 26 -8
34 -8 13 -1 13 1 0 10 -12 9 -11 9 5 3 11 -4 45 -10 75 -14 l55 -6 -53 -4
c-30 -3 -56 -3 -58 -1 -2 3 -28 4 -57 3 -38 -2 -48 0 -37 7 19 13 5 14 -57 2
-26 -6 -70 -13 -98 -17 -44 -6 -47 -8 -25 -15 18 -6 10 -8 -25 -5 -28 3 -82 0
-120 -6 -39 -5 -95 -11 -125 -12 -224 -8 -234 -9 -205 -16 17 -4 22 -8 13 -9
-13 -1 -16 -9 -12 -44 3 -32 -2 -54 -20 -87 -14 -25 -31 -45 -38 -44 -9 1 -12
-10 -10 -38 l4 -38 -161 0 -161 0 0 29 c0 29 -29 91 -42 91 -4 0 -10 -5 -13
-10 -10 -17 -25 -11 -25 10 0 13 7 20 20 20 11 0 20 5 20 10 0 6 -7 10 -15 10
-8 0 -15 8 -15 19 0 10 7 24 15 31 22 18 48 -6 42 -39 -3 -14 -1 -35 3 -46 6
-13 9 2 9 48 1 47 -3 67 -11 67 -10 0 -10 3 0 9 19 12 -31 24 -72 17 -28 -5
-27 -4 6 7 20 7 39 15 42 18 6 6 -103 26 -175 33 -20 2 -41 6 -48 10 -7 5 -24
5 -39 2 -20 -5 -23 -4 -12 4 12 8 9 10 -15 12 -16 1 -46 1 -65 0 -25 -1 -30 1
-16 6 14 6 6 11 -33 20 -28 6 -58 9 -67 5 -12 -5 -15 -3 -9 6 5 10 2 11 -13 7
-14 -5 -38 2 -69 18 -58 31 -79 34 -38 5 17 -12 21 -18 10 -14 -11 5 -46 9
-78 11 -62 3 -91 13 -41 15 l29 1 -30 13 c-16 8 -24 14 -17 15 7 0 22 -5 32
-10 13 -7 21 -7 25 0 4 6 3 10 -2 9 -8 -2 -19 2 -98 36 -72 31 -89 33 -105 17
-12 -14 -11 -15 7 -10 20 5 21 2 14 -30 -1 -2 -8 4 -17 13 -10 10 -26 14 -38
11 -17 -4 -16 -2 6 17 l27 22 -166 83 c-164 81 -190 91 -116 46 21 -13 33 -24
27 -24 -5 0 -19 7 -30 15 -21 16 -48 20 -40 6 3 -5 -1 -12 -10 -15 -10 -4 -13
-2 -8 6 5 7 2 9 -8 6 -10 -4 -14 1 -14 22 0 21 4 27 15 23 11 -3 10 0 -4 11
-11 9 -25 14 -32 12 -15 -6 -79 19 -88 34 -10 16 5 12 42 -11 19 -12 36 -19
39 -16 3 2 -17 17 -43 33 -26 15 -71 45 -100 66 -52 38 -90 55 -44 19 l24 -19
-21 -6 c-12 -4 -22 -12 -22 -18 0 -6 -3 -8 -6 -5 -4 4 -1 14 7 24 8 9 9 14 2
10 -6 -4 -14 -3 -18 3 -3 5 -2 10 3 10 30 0 -15 60 -53 71 -5 1 -35 24 -65 50
-30 26 -90 77 -133 113 -42 37 -82 64 -87 61 -6 -4 -8 -11 -5 -16 3 -5 -1 -6
-10 -2 -10 3 -21 0 -25 -7 -5 -7 -7 -1 -7 16 0 16 2 23 4 17 8 -21 22 -14 21
10 -2 25 -27 59 -39 52 -4 -3 -10 4 -14 15 -3 11 -11 20 -16 20 -6 0 -7 -6 -2
-12 12 -21 12 -37 -1 -32 -7 3 -12 17 -12 33 1 21 -16 46 -73 107 -41 43 -72
72 -69 64 3 -8 0 -21 -7 -27 -11 -10 -13 -5 -10 25 1 20 -1 39 -4 42 -4 3 -33
39 -65 80 -49 65 -61 75 -88 75 -26 0 -31 4 -34 27 -1 15 2 31 8 34 7 4 8 2 4
-4 -4 -7 -2 -20 4 -29 9 -15 10 -14 4 6 -4 16 -3 21 5 16 7 -3 -3 14 -20 39
-18 25 -35 44 -37 41 -2 -2 6 -19 19 -37 14 -20 17 -28 7 -20 -10 8 -21 11
-27 8 -5 -3 -7 4 -4 16 4 22 4 22 -11 4 -8 -10 -19 -15 -25 -12 -15 9 -10 54
6 60 16 6 16 1 3 -25 -7 -12 -7 -19 -1 -19 6 0 15 9 21 20 8 15 7 26 -6 45
-15 23 -33 37 -19 16 3 -5 2 -12 -3 -15 -5 -3 -9 7 -9 22 0 15 -19 59 -42 99
-32 54 -46 71 -59 67 -13 -4 -14 -3 -4 3 10 8 11 15 1 36 -7 15 -16 27 -21 27
-5 0 -6 5 -2 12 4 7 3 8 -5 4 -9 -6 -8 -14 4 -33 13 -20 14 -28 4 -37 -9 -8
-11 -7 -6 6 3 10 2 20 -3 23 -6 4 -10 -5 -10 -19 0 -14 5 -26 10 -26 6 0 10
-9 10 -20 0 -13 -7 -20 -20 -20 -17 0 -20 7 -20 51 0 31 4 48 10 44 13 -8 13
1 0 26 -6 11 -7 19 -3 18 22 -4 25 3 7 17 -10 8 -14 13 -7 10 6 -4 -1 21 -15
54 l-27 61 -12 -28 c-6 -15 -8 -32 -5 -38 4 -5 9 4 13 20 5 22 6 16 5 -22 0
-28 -1 -51 -2 -50 0 1 -11 20 -24 41 -13 22 -19 37 -13 33 13 -8 27 39 16 56
-5 8 -10 3 -15 -13 -7 -22 -7 -22 -4 5 3 17 7 39 11 50 6 20 5 20 -5 0 -9 -16
-19 -20 -51 -17 -38 4 -39 5 -39 43 0 21 5 39 10 39 6 0 10 -5 10 -12 0 -6 10
-3 22 8 14 12 19 14 13 4 -6 -11 -5 -12 4 -4 10 9 7 24 -12 70 -13 33 -27 72
-31 88 -4 15 -10 26 -13 22 -8 -7 -33 13 -33 26 0 6 7 5 15 -2 9 -8 15 -9 15
-2 0 6 -4 13 -9 17 -6 3 -9 13 -9 23 0 9 -11 58 -26 107 -34 113 -35 127 -13
131 9 1 17 -2 17 -8 0 -9 19 -7 67 8 11 3 8 -1 -7 -11 l-25 -16 24 7 c16 4 21
3 16 -5 -7 -12 4 -11 84 10 38 9 55 5 22 -6 -12 -3 -21 -10 -21 -15 0 -5 -15
-7 -32 -5 -26 4 -23 2 11 -9 25 -8 48 -13 53 -10 4 3 8 1 8 -4 0 -5 20 -15 44
-21 53 -13 67 -14 64 -3 -1 4 4 18 11 31 13 24 8 33 -23 44 -13 4 1 37 15 37
7 0 17 -8 24 -17z m5995 -12 c0 -11 -31 -24 -39 -16 -3 3 1 10 9 15 19 12 30
12 30 1z m-187 -8 c-7 -2 -19 -2 -25 0 -7 3 -2 5 12 5 14 0 19 -2 13 -5z m217
-3 c0 -5 -4 -10 -10 -10 -5 0 -11 -15 -11 -32 -1 -24 -3 -27 -6 -10 -2 12 -9
22 -14 22 -10 0 22 38 34 39 4 1 7 -3 7 -9z m577 -32 c-3 -8 -6 -5 -6 6 -1 11
2 17 5 13 3 -3 4 -12 1 -19z m-6732 2 c-27 -12 -35 -12 -35 0 0 6 12 10 28 9
24 0 25 -1 7 -9z m5932 4 c-3 -3 -12 -4 -19 -1 -8 3 -5 6 6 6 11 1 17 -2 13
-5z m-6170 -51 c-3 -10 -5 -4 -5 12 0 17 2 24 5 18 2 -7 2 -21 0 -30z m6183
33 c0 -2 -7 -7 -16 -10 -8 -3 -12 -2 -9 4 6 10 25 14 25 6z m-6784 -56 l0 -49
-15 31 c-11 24 -12 33 -3 36 7 2 12 10 12 18 0 8 1 14 3 14 2 0 3 -22 3 -50z
m7569 40 c3 -5 1 -10 -4 -10 -6 0 -11 5 -11 10 0 6 2 10 4 10 3 0 8 -4 11 -10z
m-6178 -62 c-2 -13 -4 -3 -4 22 0 25 2 35 4 23 2 -13 2 -33 0 -45z m5158 8
c-16 -7 -34 -11 -39 -8 -12 7 21 20 49 21 15 0 12 -3 -10 -13z m-5923 -33 c3
-10 -1 -31 -8 -48 -13 -30 -14 -29 -9 15 4 33 3 40 -4 25 -9 -20 -10 -20 -10
1 -2 37 22 42 31 7z m6888 -67 c0 -5 -11 6 -23 25 -13 19 -22 40 -19 47 4 12
42 -52 42 -72z m-7499 28 c-7 -31 -9 -34 -10 -12 -1 27 9 62 15 55 3 -2 0 -22
-5 -43z m6304 16 c-11 -5 -29 -8 -40 -8 -16 0 -15 2 5 8 34 11 60 11 35 0z
m593 -50 c-1 -27 -6 -46 -10 -42 -15 15 -14 92 2 92 6 0 9 -22 8 -50z m-6265
-7 c-3 -7 -9 -13 -14 -13 -11 0 -12 34 -2 43 9 10 22 -13 16 -30z m899 -7 c25
1 26 0 10 -12 -10 -8 -21 -9 -26 -3 -6 5 -24 9 -40 10 -17 0 -40 5 -51 10 -13
5 -3 6 30 2 28 -4 62 -7 77 -7z m78 4 c18 -12 2 -12 -25 0 -13 6 -15 9 -5 9 8
0 22 -4 30 -9z m5877 -32 c-3 -7 -5 -2 -5 12 0 14 2 19 5 13 2 -7 2 -19 0 -25z
m-607 -18 c0 -13 -1 -13 -10 0 -5 8 -10 22 -10 30 0 13 1 13 10 0 5 -8 10 -22
10 -30z m627 18 c-3 -8 -6 -5 -6 6 -1 11 2 17 5 13 3 -3 4 -12 1 -19z m-7500
-10 c-3 -8 -6 -5 -6 6 -1 11 2 17 5 13 3 -3 4 -12 1 -19z m1588 12 l20 -9 -20
0 c-11 0 -27 4 -35 9 -13 9 -13 10 0 9 8 0 24 -4 35 -9z m-977 -20 c7 -12 8
-20 2 -20 -5 0 -10 5 -10 10 0 6 -4 10 -10 10 -5 0 -10 -7 -10 -17 0 -9 -3
-14 -6 -10 -7 7 5 47 14 47 4 0 13 -9 20 -20z m6232 -55 c-7 -25 -16 -45 -20
-45 -5 0 -1 22 8 50 19 61 30 58 12 -5z m621 9 c-5 -16 -10 -21 -10 -12 -1 18
10 51 15 45 2 -1 -1 -16 -5 -33z m-6804 4 c-3 -8 -6 -5 -6 6 -1 11 2 17 5 13
3 -3 4 -12 1 -19z m39 -115 c-7 -7 -36 54 -36 74 0 10 9 -2 20 -26 11 -24 18
-46 16 -48z m6194 -18 l0 -85 -35 0 c-28 0 -35 4 -35 20 0 11 -5 20 -10 20 -6
0 -9 -10 -7 -22 2 -13 2 -16 -1 -8 -4 12 -6 11 -13 -5 -7 -19 -8 -19 -8 2 -1
12 4 25 9 28 6 4 8 16 5 28 -2 12 -2 16 1 9 11 -24 45 17 38 44 -5 20 -2 24
15 24 12 0 24 7 27 15 11 28 14 15 14 -70z m-4757 68 c-7 -2 -19 -2 -25 0 -7
3 -2 5 12 5 14 0 19 -2 13 -5z m3352 -3 c-12 -5 -14 -9 -6 -9 8 -1 12 -4 8 -7
-3 -3 -15 -3 -28 1 -17 6 -19 9 -8 16 8 5 23 8 34 8 l20 0 -20 -9z m-3320 -10
c-11 -5 -27 -9 -35 -9 -9 0 -8 4 5 9 11 5 27 9 35 9 9 0 8 -4 -5 -9z m-62 -7
c-7 -2 -19 -2 -25 0 -7 3 -2 5 12 5 14 0 19 -2 13 -5z m77 -25 c0 -5 -5 -8
-11 -8 -5 0 -7 -5 -4 -10 4 -6 -6 -5 -22 2 -44 19 -45 23 -2 23 21 0 39 -3 39
-7z m65 -38 c3 -6 -1 -7 -9 -4 -18 7 -21 14 -7 14 6 0 13 -4 16 -10z m2975 0
c-14 -4 -36 -8 -50 -8 -22 0 -22 1 5 8 17 4 39 8 50 8 16 0 15 -2 -5 -8z m135
0 c-16 -4 -43 -8 -60 -9 -23 0 -26 2 -15 9 8 5 35 9 60 9 41 -1 42 -2 15 -9z
m2032 -32 c-3 -7 -5 -2 -5 12 0 14 2 19 5 13 2 -7 2 -19 0 -25z m-4982 12 c25
-11 -1 -11 -35 0 -20 6 -21 8 -5 8 11 0 29 -3 40 -8z m2735 -10 c0 -5 -2 -10
-4 -10 -3 0 -8 5 -11 10 -3 6 -1 10 4 10 6 0 11 -4 11 -10z m157 4 c-3 -3 -12
-4 -19 -1 -8 3 -5 6 6 6 11 1 17 -2 13 -5z m1469 -51 c-3 -4 -6 -1 -6 6 0 7
-4 9 -10 6 -6 -4 -7 1 -3 11 6 15 7 15 15 -1 6 -9 7 -19 4 -22z m-1826 -4 c8
0 4 -5 -10 -9 -22 -7 -20 -8 15 -10 l40 -2 -50 -9 c-27 -4 -51 -6 -54 -3 -2 2
4 5 15 5 10 1 1 5 -21 9 l-40 7 40 2 c33 2 37 4 20 12 -17 8 -17 9 5 4 14 -2
32 -5 40 -6z m129 -3 c-2 -2 -21 -6 -42 -10 -27 -5 -37 -4 -32 3 3 6 22 11 42
11 20 0 34 -2 32 -4z m-2442 -22 c-3 -3 -12 -4 -19 -1 -8 3 -5 6 6 6 11 1 17
-2 13 -5z m556 -45 c-5 -4 -37 -10 -73 -13 -45 -4 -55 -3 -32 3 18 5 35 10 37
12 2 2 20 4 39 5 20 0 33 -3 29 -7z m1242 -19 c18 -4 -2 -5 -47 -2 -52 3 -78
1 -78 -6 0 -6 10 -13 23 -15 12 -3 6 -4 -13 -4 -27 2 -34 6 -32 19 1 9 -5 18
-15 20 -10 3 16 3 57 0 41 -2 89 -7 105 -12z m82 14 c-3 -3 -12 -4 -19 -1 -8
3 -5 6 6 6 11 1 17 -2 13 -5z m173 -4 c-65 -14 -115 -20 -101 -11 11 7 10 10
-4 12 -10 2 17 5 61 5 58 2 70 0 44 -6z m-1485 -10 c-3 -5 -21 -9 -38 -9 l-32
2 35 7 c19 4 36 8 38 9 2 0 0 -3 -3 -9z m143 3 c-15 -2 -42 -2 -60 0 -18 2 -6
4 27 4 33 0 48 -2 33 -4z m-208 -23 c57 -13 1 -10 -80 5 -73 13 -74 14 -15 9
33 -3 76 -9 95 -14z m1387 14 c-3 -3 -12 -4 -19 -1 -8 3 -5 6 6 6 11 1 17 -2
13 -5z m-3714 -17 c3 -8 2 -20 -3 -26 -5 -9 -7 -4 -7 13 0 29 2 32 10 13z
m2475 6 c-10 -2 -26 -2 -35 0 -10 3 -2 5 17 5 19 0 27 -2 18 -5z m-2528 -36
c0 -5 -4 -5 -10 -2 -5 3 -10 14 -10 23 0 15 2 15 10 2 5 -8 10 -19 10 -23z
m5940 8 c0 -8 -4 -15 -10 -15 -5 0 -7 7 -4 15 4 8 8 15 10 15 2 0 4 -7 4 -15z
m-2423 -1 c-3 -3 -12 -4 -19 -1 -8 3 -5 6 6 6 11 1 17 -2 13 -5z m-4110 -36
c-3 -7 -5 -2 -5 12 0 14 2 19 5 13 2 -7 2 -19 0 -25z m3671 15 c-21 -2 -57 -2
-80 0 -24 2 -7 4 37 4 44 0 63 -2 43 -4z m3502 -32 c-10 -20 -19 -40 -20 -46
-1 -5 -6 -19 -11 -30 -7 -19 -8 -19 -8 3 -1 12 4 22 11 22 6 0 9 3 5 6 -3 4 1
20 9 36 8 16 13 32 10 37 -3 4 1 8 9 8 11 0 10 -8 -5 -36z m-7163 -23 c-3 -8
-6 -5 -6 6 -1 11 2 17 5 13 3 -3 4 -12 1 -19z m47 -24 c8 -22 8 -26 -4 -19 -5
3 -10 -1 -10 -9 0 -20 17 -29 24 -14 3 7 3 3 0 -10 -3 -13 0 -30 7 -38 10 -12
9 -13 -5 -8 -9 3 -16 15 -16 25 0 10 -4 19 -9 19 -5 0 -11 9 -14 21 -10 38 14
68 27 33z m26 -4 c0 -11 -2 -20 -4 -20 -2 0 -6 9 -9 20 -3 11 -1 20 4 20 5 0
9 -9 9 -20z m679 -114 c-15 -16 -10 -29 6 -16 10 9 15 9 15 1 0 -6 -3 -11 -7
-12 -5 0 -15 -2 -23 -4 -11 -2 -15 8 -16 42 l-1 45 18 -23 c11 -15 14 -28 8
-33z m6331 23 c0 -3 -6 -6 -14 -6 -8 0 -11 8 -8 20 4 14 7 16 13 5 5 -7 9 -16
9 -19z m18 -10 c-6 -16 -12 -28 -14 -26 -5 5 13 57 20 57 3 0 0 -14 -6 -31z
m-702 -82 c2 -20 -2 -40 -8 -43 -7 -4 -8 -3 -4 5 9 14 -2 51 -15 51 -5 0 -7
-12 -4 -27 6 -25 5 -26 -5 -9 -9 14 -9 24 -1 43 15 34 33 25 37 -20z m651 -14
c-3 -10 -5 -4 -5 12 0 17 2 24 5 18 2 -7 2 -21 0 -30z m-6860 -139 c1 -18 -2
-23 -9 -16 -6 6 -8 18 -5 26 9 22 12 20 14 -10z m28 -34 c-4 -11 -11 -17 -17
-14 -7 4 -6 9 2 14 7 5 10 17 6 31 -6 21 -5 21 4 6 6 -9 8 -26 5 -37z m6686
-97 c-8 -14 -9 -13 -8 7 0 14 -3 34 -7 45 -4 11 0 8 9 -8 11 -19 13 -33 6 -44z
m-5908 14 c20 -30 25 -52 12 -52 -6 0 -9 4 -7 8 1 4 -9 18 -23 31 -13 13 -22
26 -18 29 11 12 20 8 36 -16z m-669 -25 c-7 -4 -10 -28 -9 -55 2 -41 1 -45
-10 -30 -7 9 -10 23 -8 30 3 8 0 13 -7 11 -7 -2 -15 4 -18 12 -2 8 -1 12 3 8
5 -5 14 1 22 12 8 11 20 20 26 20 9 0 9 -2 1 -8z m6517 -26 c-23 -36 -25 -46
-13 -46 4 0 13 14 19 31 7 18 16 28 23 24 8 -5 7 -12 -2 -23 -8 -10 -20 -30
-28 -47 -11 -25 -14 -27 -18 -11 -2 11 -7 15 -11 8 -3 -6 -6 6 -6 27 0 25 4
37 11 34 6 -2 14 5 17 16 3 12 10 21 17 21 7 0 4 -13 -9 -34z m-686 -22 c1
-21 -30 -31 -40 -13 -4 5 -12 6 -18 2 -7 -3 -4 3 6 14 22 25 50 24 52 -3z
m-5094 -21 c9 -11 10 -14 2 -10 -8 5 -15 -1 -19 -18 -5 -19 -1 -30 12 -40 10
-7 23 -11 27 -8 9 6 57 -35 57 -49 0 -5 -4 -6 -10 -3 -6 3 -7 -1 -4 -9 8 -20
20 -20 27 -1 4 8 -6 26 -23 42 -17 15 -30 32 -30 37 0 6 16 -5 35 -24 24 -24
34 -40 30 -54 -3 -12 -2 -15 1 -8 7 16 21 15 27 -2 4 -10 -18 -13 -114 -15
l-119 -1 0 82 0 83 46 -4 c32 -2 44 0 40 8 -11 17 0 13 15 -6z m9 -44 c0 -6
-4 -7 -10 -4 -5 3 -10 11 -10 16 0 6 5 7 10 4 6 -3 10 -11 10 -16z m-704 -56
c-2 -2 -11 9 -19 26 -8 16 -12 32 -9 36 3 3 12 -9 19 -26 7 -18 11 -34 9 -36z
m34 58 c0 -6 -4 -13 -10 -16 -5 -3 -10 1 -10 9 0 9 5 16 10 16 6 0 10 -4 10
-9z m5644 -16 c-4 -8 -11 -15 -16 -15 -6 0 -5 6 2 15 7 8 14 15 16 15 2 0 1
-7 -2 -15z m-5650 -55 c6 -31 5 -33 -8 -20 -10 9 -13 24 -9 38 7 28 8 26 17
-18z m52 -59 c16 13 37 -22 28 -46 -9 -24 -25 3 -18 30 5 19 4 19 -10 2 -14
-18 -15 -18 -26 5 -10 19 -10 21 1 11 9 -9 16 -9 25 -2z m6247 -52 c-3 -11
-12 -23 -19 -26 -8 -3 -12 -8 -10 -12 2 -3 -2 -12 -10 -19 -11 -10 -14 -10
-14 0 1 18 26 49 33 41 4 -3 7 3 7 15 0 12 4 22 9 22 5 0 7 -9 4 -21z m-5395
-44 c-3 -3 -9 2 -12 12 -6 14 -5 15 5 6 7 -7 10 -15 7 -18z m-748 5 c0 8 2 11
5 8 3 -3 2 -16 -3 -29 l-9 -23 -12 21 c-15 30 -14 38 4 23 12 -10 15 -10 15 0z
m12 -80 c5 0 6 5 3 10 -4 6 10 10 35 10 l41 0 -3 -65 -3 -64 -22 26 c-13 14
-23 28 -23 31 0 3 10 -3 23 -13 12 -10 6 -3 -13 16 -19 20 -38 34 -41 32 -8
-3 -39 42 -38 54 0 4 7 -2 16 -14 8 -13 20 -23 25 -23z m817 -12 c-10 -7 -8
-8 8 -3 12 3 25 1 29 -6 5 -9 2 -10 -10 -6 -14 6 -17 3 -12 -10 5 -13 0 -11
-19 7 -14 14 -21 26 -16 28 8 3 7 10 0 25 -11 21 -10 21 11 -2 19 -19 20 -25
9 -33z m5218 15 c-4 9 -2 17 3 17 16 0 20 -17 6 -29 -10 -8 -17 -6 -32 12
l-19 22 24 -20 c21 -18 24 -18 18 -2z m-840 -8 c0 -8 -4 -12 -8 -9 -4 2 -10 0
-14 -6 -3 -6 1 -13 9 -16 22 -8 20 -26 -1 -22 -22 4 -24 27 -5 51 18 21 19 21
19 2z m816 -25 c3 -11 2 -22 -2 -24 -4 -3 -8 6 -9 20 -2 29 4 31 11 4z m-5120
-39 c-3 -22 12 -30 19 -10 2 7 10 4 18 -7 14 -16 13 -17 -2 -11 -10 3 -18 2
-18 -4 0 -15 31 -24 39 -11 8 13 61 -28 61 -47 0 -6 6 -11 14 -11 7 0 19 -7
26 -15 6 -8 17 -13 22 -12 6 1 12 -3 14 -9 3 -6 -19 -10 -60 -10 -36 1 -59 5
-53 9 9 6 9 10 -1 14 -6 2 -9 9 -6 15 4 5 12 4 22 -5 25 -21 62 -28 55 -11 -3
8 -8 12 -12 10 -8 -6 -34 15 -47 39 -6 10 -16 21 -24 23 -8 3 -10 0 -5 -8 5
-9 4 -11 -4 -6 -6 4 -18 2 -26 -4 -12 -10 -15 -10 -15 0 0 7 -7 10 -16 6 -14
-5 -15 -4 -4 9 7 9 8 15 2 15 -6 0 -9 11 -7 25 2 20 -2 25 -19 25 -17 0 -18 2
-6 10 22 14 35 6 33 -19z m5062 -31 c4 0 4 8 0 18 -5 14 -4 15 6 5 10 -10 7
-19 -17 -45 -17 -18 -46 -50 -64 -71 -18 -20 -35 -35 -37 -33 -2 2 7 16 21 31
15 16 26 33 26 39 0 6 -12 -2 -25 -17 -14 -15 -25 -24 -25 -19 0 15 48 54 58
48 16 -10 31 17 28 49 -3 25 -2 27 9 12 7 -9 16 -17 20 -17z m-919 -54 c0 -14
-6 -22 -13 -19 -23 9 -14 -14 10 -25 17 -8 18 -11 5 -11 -9 -1 -20 4 -23 9 -3
6 -11 10 -17 10 -6 0 -5 -7 3 -17 13 -15 12 -15 -8 -4 l-23 12 33 34 c17 18
33 34 33 34 1 1 1 -10 0 -23z m-4793 -75 c-6 -3 -9 -16 -8 -28 1 -13 1 -23 0
-23 -1 0 -13 13 -28 28 -25 26 -25 28 -7 29 11 1 18 -2 15 -7 -3 -5 -1 -12 5
-15 6 -4 10 -3 9 2 -4 21 2 34 12 27 7 -4 7 -9 2 -13z m972 -65 c17 -13 28
-27 25 -30 -3 -3 -19 6 -34 21 -22 20 -30 23 -37 12 -4 -7 -11 -10 -16 -6 -6
7 13 27 27 27 3 0 19 -11 35 -24z m4485 -21 c-7 -8 -17 -15 -23 -15 -5 0 -2 9
8 20 21 23 35 19 15 -5z m-5401 5 c14 7 17 3 18 -26 0 -19 0 -34 -1 -32 0 2
-14 19 -31 38 -16 19 -24 30 -16 23 9 -8 20 -9 30 -3z m5431 -30 c0 -5 -4 -10
-10 -10 -5 0 -10 5 -10 10 0 6 5 10 10 10 6 0 10 -4 10 -10z m-90 -50 c12 -7
12 -10 1 -10 -7 0 -11 -6 -8 -14 4 -10 1 -13 -9 -9 -7 3 -14 0 -14 -6 0 -6 5
-11 12 -11 14 0 -22 -29 -36 -30 -6 0 -1 7 10 15 13 10 14 14 5 15 -10 0 -11
3 -2 14 6 8 11 18 10 22 -4 26 6 30 31 14z m-1010 -54 c0 -2 -7 -7 -16 -10 -8
-3 -12 -2 -9 4 6 10 25 14 25 6z m915 -34 c-3 -3 -11 0 -18 7 -9 10 -8 11 6 5
10 -3 15 -9 12 -12z m-3965 -28 c0 -2 -12 -2 -27 1 -22 5 -19 2 12 -14 46 -22
40 -28 -9 -7 -42 18 -47 49 -4 34 15 -6 28 -12 28 -14z m2975 16 c-9 -14 -65
-42 -65 -33 0 6 34 27 68 42 2 0 0 -4 -3 -9z m995 -15 c0 -1 -6 -8 -14 -15
-12 -9 -15 -8 -13 8 0 12 6 18 14 15 7 -3 13 -6 13 -8z m-3924 -21 c18 -14 18
-14 -6 -3 -31 14 -36 19 -24 19 6 0 19 -7 30 -16z m-1030 -40 c-13 -13 -25
-18 -32 -13 -6 5 -14 7 -17 4 -4 -3 -5 -2 -2 2 3 3 -3 11 -12 18 -13 10 -7 12
34 11 l49 -1 -20 -21z m52 14 c-3 -13 -41 -48 -53 -48 -9 0 38 59 48 59 4 1 6
-5 5 -11z m1057 -18 c-3 -5 -13 -10 -21 -10 -8 0 -12 5 -9 10 3 6 13 10 21 10
8 0 12 -4 9 -10z m2682 -35 c24 -25 7 -30 -18 -6 -13 12 -17 21 -10 21 7 0 19
-7 28 -15z m-2572 -5 c7 -12 -2 -12 -30 0 -19 8 -19 9 2 9 12 1 25 -3 28 -9z
m-1110 -31 c9 -17 14 -36 11 -42 -3 -7 -5 -6 -5 3 -1 8 -5 21 -10 29 -8 12
-12 12 -24 2 -10 -8 -17 -9 -22 -1 -3 5 1 10 9 10 9 0 16 7 16 15 0 23 8 18
25 -16z m1152 15 c-3 -3 -12 -4 -19 -1 -8 3 -5 6 6 6 11 1 17 -2 13 -5z m3533
-15 c0 -11 -60 -42 -67 -35 -10 9 8 25 22 19 13 -4 20 7 16 29 0 4 6 5 14 2 8
-4 15 -10 15 -15z m-3533 -15 c-3 -3 -12 -4 -19 -1 -8 3 -5 6 6 6 11 1 17 -2
13 -5z m2173 -35 c-44 -12 -67 -9 -30 5 19 7 39 10 45 7 5 -3 -1 -8 -15 -12z
m-2133 -5 c-3 -3 -12 -4 -19 -1 -8 3 -5 6 6 6 11 1 17 -2 13 -5z m83 2 c0 -2
-7 -7 -16 -10 -8 -3 -12 -2 -9 4 6 10 25 14 25 6z m3250 -16 c0 -5 -4 -10 -10
-10 -5 0 -10 5 -10 10 0 6 5 10 10 10 6 0 10 -4 10 -10z m67 -5 c-22 -21 -86
-45 -92 -34 -4 5 2 9 13 9 10 0 26 8 35 18 9 10 25 18 37 19 17 2 18 0 7 -12z
m-1297 -29 c0 -32 -2 -34 -40 -38 -22 -2 -40 0 -40 4 0 3 -6 8 -12 11 -7 2 -5
3 4 2 10 -2 21 1 24 6 4 6 -22 8 -68 6 -40 -2 -53 -2 -28 0 36 4 41 7 25 13
-12 6 -2 7 28 3 30 -4 47 -2 47 5 0 6 12 13 28 15 15 2 28 5 30 6 1 0 2 -14 2
-33z m-1805 4 c-11 -5 -27 -9 -35 -9 -9 0 -8 4 5 9 11 5 27 9 35 9 9 0 8 -4
-5 -9z m95 -14 c0 -2 -7 -6 -15 -10 -8 -3 -15 -1 -15 4 0 6 7 10 15 10 8 0 15
-2 15 -4z m2860 -35 c0 -5 -6 -12 -12 -14 -8 -4 -9 -6 -2 -6 6 -1 17 6 24 14
7 8 20 15 29 15 9 0 1 -9 -19 -22 -19 -12 -38 -27 -43 -33 -4 -5 -5 1 -3 15 3
14 5 28 5 33 1 10 21 9 21 -2z m-1646 -32 c67 -2 -117 -27 -204 -28 -41 0 -81
3 -89 8 -7 5 28 7 85 6 64 -2 87 0 64 5 -28 6 -24 7 20 4 41 -2 50 0 35 7 -16
7 -13 8 14 4 18 -3 52 -6 75 -6z m-2544 -9 c0 -5 -2 -10 -4 -10 -3 0 -8 5 -11
10 -3 6 -1 10 4 10 6 0 11 -4 11 -10z m1553 3 c-7 -2 -21 -2 -30 0 -10 3 -4 5
12 5 17 0 24 -2 18 -5z m2483 -41 c8 -5 5 -12 -10 -24 -22 -16 -22 -15 -20 5
1 12 3 23 3 25 2 4 16 2 27 -6z m-141 -93 c5 -5 15 -9 23 -9 12 0 12 3 1 17
-12 15 -12 16 4 10 10 -4 21 -7 23 -7 15 0 -1 -20 -23 -29 -16 -6 -36 -16 -45
-23 -14 -10 -20 -10 -30 0 -11 11 -9 12 7 6 l20 -7 -20 23 -20 23 22 -12 c38
-19 50 -11 13 10 -27 15 -29 18 -10 13 14 -3 29 -10 35 -15z m-3712 -3 c-3 -4
5 -5 18 -2 20 6 21 5 7 -4 -13 -8 -25 -7 -45 4 l-28 14 27 -1 c14 -1 24 -6 21
-11z m202 -68 l30 1 -30 -15 -30 -14 28 5 c15 3 27 1 27 -5 0 -5 -5 -10 -11
-10 -5 0 -7 -5 -4 -10 4 -6 -12 -1 -34 11 -47 24 -51 29 -18 22 21 -4 21 -4
-3 12 -17 11 -19 14 -5 9 11 -4 34 -7 50 -6z m3412 -4 c0 -7 -7 -10 -15 -6
-11 4 -13 1 -7 -9 5 -8 4 -11 0 -6 -16 14 -13 33 5 33 9 0 17 -6 17 -12z m-48
-26 c-57 -35 -65 -37 -65 -18 0 10 3 17 7 14 4 -2 18 0 31 5 19 7 40 6 27 -1z
m-142 -74 c-3 -3 -12 -4 -19 -1 -8 3 -5 6 6 6 11 1 17 -2 13 -5z m-45 -16 c-9
-9 -15 -9 -24 0 -9 9 -7 12 12 12 19 0 21 -3 12 -12z m-2822 -43 c-14 -8 -29
-14 -35 -14 -5 0 1 6 15 14 14 8 30 14 35 14 6 0 -1 -6 -15 -14z m2597 9 c-3
-3 -12 -4 -19 -1 -8 3 -5 6 6 6 11 1 17 -2 13 -5z m93 -4 c18 -12 2 -12 -25 0
-13 6 -15 9 -5 9 8 0 22 -4 30 -9z m-2634 -9 c-3 -5 2 -12 12 -16 14 -7 13 -9
-8 -15 -14 -3 -35 -2 -48 4 l-23 10 23 13 c27 14 52 17 44 4z m2501 3 c-3 -3
-12 -4 -19 -1 -8 3 -5 6 6 6 11 1 17 -2 13 -5z m98 -5 c16 -8 15 -8 -8 -4 -17
4 -26 2 -23 -4 4 -5 1 -13 -5 -17 -8 -5 -9 -3 -4 6 8 13 -11 11 -62 -6 -16 -6
-16 -5 2 9 33 25 69 31 100 16z m-2502 -66 c-7 -2 -19 -2 -25 0 -7 3 -2 5 12
5 14 0 19 -2 13 -5z m114 1 c-3 -3 -12 -4 -19 -1 -8 3 -5 6 6 6 11 1 17 -2 13
-5z m2239 -3 c-3 -5 -15 -11 -26 -14 -17 -4 -19 -3 -9 9 12 15 44 20 35 5z
m-2209 -47 c-3 -3 -12 -4 -19 -1 -8 3 -5 6 6 6 11 1 17 -2 13 -5z m2020 -10
c-3 -3 -12 -4 -19 -1 -8 3 -5 6 6 6 11 1 17 -2 13 -5z m-1672 -45 c-24 -7 -19
-7 20 -4 l50 4 -32 -14 c-27 -11 -43 -12 -90 -2 l-58 12 45 6 c25 3 56 6 70 6
22 1 22 0 -5 -8z m1285 1 c0 -5 -7 -10 -15 -10 -8 0 -15 5 -15 10 0 6 7 10 15
10 8 0 15 -4 15 -10z m45 -17 c-11 -2 -30 -9 -42 -15 -12 -6 -30 -7 -40 -3
-15 7 -11 10 17 15 39 8 100 11 65 3z m-1278 -19 c-3 -3 -12 -4 -19 -1 -8 3
-5 6 6 6 11 1 17 -2 13 -5z m573 -14 c11 -7 -6 -10 -55 -12 -47 -1 -26 -4 65
-8 90 -5 60 -6 -90 -3 -124 2 -252 8 -285 12 -56 8 -55 9 25 5 126 -6 139 -5
210 4 90 13 113 13 130 2z m333 -7 c-7 -2 -19 -2 -25 0 -7 3 -2 5 12 5 14 0
19 -2 13 -5z m60 -10 c-7 -2 -19 -2 -25 0 -7 3 -2 5 12 5 14 0 19 -2 13 -5z
m-56 -9 c-3 -3 -12 -4 -19 -1 -8 3 -5 6 6 6 11 1 17 -2 13 -5z"/>
<path d="M8065 8530 c-3 -5 -1 -10 4 -10 6 0 11 5 11 10 0 6 -2 10 -4 10 -3 0
-8 -4 -11 -10z"/>
<path d="M8190 8516 c30 -7 71 -16 90 -20 35 -7 35 -7 -5 8 -22 9 -62 18 -90
21 l-50 5 55 -14z"/>
<path d="M8158 8503 c7 -3 16 -2 19 1 4 3 -2 6 -13 5 -11 0 -14 -3 -6 -6z"/>
<path d="M8198 8493 c7 -3 16 -2 19 1 4 3 -2 6 -13 5 -11 0 -14 -3 -6 -6z"/>
<path d="M8890 8220 c16 -16 30 -34 30 -40 0 -5 8 -10 17 -10 12 0 6 11 -22
40 -21 22 -43 40 -47 40 -5 0 5 -13 22 -30z"/>
<path d="M8742 8194 c-43 -30 -16 -104 38 -104 53 0 80 53 40 78 -11 7 -20 19
-20 27 0 19 -30 19 -58 -1z"/>
<path d="M8980 8190 c0 -5 5 -10 11 -10 5 0 7 5 4 10 -3 6 -8 10 -11 10 -2 0
-4 -4 -4 -10z"/>
<path d="M8540 7981 c0 -31 15 -33 40 -6 l23 25 -31 0 c-25 0 -32 -4 -32 -19z"/>
<path d="M8390 7850 c-12 -8 -10 -10 10 -11 22 0 23 -1 6 -8 -11 -4 -15 -10
-10 -13 11 -7 56 27 47 36 -9 9 -36 7 -53 -4z"/>
<path d="M4590 7766 c4 -4 16 -4 26 2 16 9 14 10 -8 9 -15 -1 -23 -6 -18 -11z"/>
<path d="M4600 7740 c0 -5 5 -10 11 -10 5 0 7 5 4 10 -3 6 -8 10 -11 10 -2 0
-4 -4 -4 -10z"/>
<path d="M9468 7096 c-19 -10 -28 -11 -28 -4 0 6 -3 9 -6 5 -3 -3 -3 -10 1
-16 4 -8 16 -6 36 4 16 9 29 18 29 20 0 7 -2 6 -32 -9z"/>
<path d="M10515 5060 c-16 -4 -61 -11 -99 -15 -40 -4 -64 -10 -56 -15 6 -4 27
-6 45 -3 20 3 36 -1 41 -8 5 -9 1 -11 -15 -6 -17 4 -21 2 -17 -9 3 -8 1 -14
-4 -14 -6 0 -10 -4 -10 -9 0 -6 33 -9 74 -8 41 1 69 5 63 9 -8 5 -6 8 6 8 10
0 17 8 17 21 0 16 4 19 20 14 30 -10 25 19 -5 33 -14 7 -27 12 -28 11 -1 0
-15 -4 -32 -9z m20 -20 c3 -6 -1 -7 -9 -4 -18 7 -21 14 -7 14 6 0 13 -4 16
-10z m-40 -10 c-3 -5 -14 -10 -23 -9 -14 0 -13 2 3 9 27 11 27 11 20 0z"/>
<path d="M10080 5050 c20 -13 43 -13 35 0 -3 6 -16 10 -28 10 -18 0 -19 -2 -7
-10z"/>
<path d="M10210 5052 c0 -5 30 -9 67 -10 36 -1 65 0 62 2 -10 8 -129 16 -129
8z"/>
<path d="M10040 4974 c0 -14 3 -14 15 -4 8 7 15 14 15 16 0 2 -7 4 -15 4 -8 0
-15 -7 -15 -16z"/>
<path d="M10280 4960 c0 -5 7 -10 15 -10 8 0 15 5 15 10 0 6 -7 10 -15 10 -8
0 -15 -4 -15 -10z"/>
<path d="M10400 4933 c0 -22 2 -25 10 -13 13 20 13 40 0 40 -5 0 -10 -12 -10
-27z"/>
<path d="M10162 4874 c-40 -28 -18 -104 31 -104 44 0 67 89 28 110 -26 13 -33
13 -59 -6z"/>
<path d="M4175 5140 c-3 -6 1 -7 9 -4 18 7 21 14 7 14 -6 0 -13 -4 -16 -10z"/>
<path d="M5383 4835 c-32 -23 -30 -68 4 -94 28 -23 59 -20 81 7 19 24 15 52
-7 52 -13 0 -21 8 -23 22 -4 28 -26 33 -55 13z"/>
<path d="M7968 4893 c12 -2 30 -2 40 0 9 3 -1 5 -23 4 -22 0 -30 -2 -17 -4z"/>
<path d="M5196 4654 c-14 -13 -23 -64 -12 -64 2 0 19 15 39 34 29 27 33 35 21
40 -23 9 -31 7 -48 -10z"/>
<path d="M5026 4484 c-17 -16 -22 -64 -8 -64 16 0 64 58 58 69 -10 16 -32 14
-50 -5z"/>
<path d="M10891 4174 c0 -11 3 -14 6 -6 3 7 2 16 -1 19 -3 4 -6 -2 -5 -13z"/>
<path d="M4473 4024 c-3 -9 0 -20 8 -25 19 -12 25 -11 43 7 11 10 16 11 16 3
0 -7 2 -10 5 -7 3 3 3 13 -1 22 -8 21 -62 22 -71 0z"/>
<path d="M4395 3941 c-2 -4 1 -8 8 -8 7 0 21 -4 31 -9 13 -5 17 -4 13 3 -9 14
-46 23 -52 14z"/>
<path d="M4665 3860 c3 -5 8 -10 11 -10 2 0 4 5 4 10 0 6 -5 10 -11 10 -5 0
-7 -4 -4 -10z"/>
<path d="M9453 3823 c-13 -2 -23 -9 -23 -15 0 -6 -8 -7 -17 -3 -14 5 -15 3 -6
-5 8 -9 20 -9 47 0 20 6 38 16 41 21 6 9 -3 10 -42 2z"/>
<path d="M9300 3760 c-8 -5 -10 -10 -5 -10 6 0 17 5 25 10 8 5 11 10 5 10 -5
0 -17 -5 -25 -10z"/>
<path d="M9240 3750 c8 -5 20 -10 25 -10 6 0 3 5 -5 10 -8 5 -19 10 -25 10 -5
0 -3 -5 5 -10z"/>
<path d="M9218 3733 c7 -3 16 -2 19 1 4 3 -2 6 -13 5 -11 0 -14 -3 -6 -6z"/>
<path d="M8885 3640 c-3 -5 1 -10 9 -10 9 0 16 5 16 10 0 6 -4 10 -9 10 -6 0
-13 -4 -16 -10z"/>
<path d="M5928 3503 c7 -3 16 -2 19 1 4 3 -2 6 -13 5 -11 0 -14 -3 -6 -6z"/>
<path d="M9968 3281 c-12 -22 -13 -28 -3 -25 9 4 12 0 8 -14 -2 -11 -1 -22 4
-25 5 -3 9 17 10 44 0 27 0 49 -1 49 0 0 -9 -13 -18 -29z"/>
<path d="M9937 3227 c-3 -8 1 -14 9 -14 16 0 19 13 5 21 -5 3 -11 0 -14 -7z"/>
<path d="M4437 2907 c-3 -8 1 -14 9 -14 16 0 19 13 5 21 -5 3 -11 0 -14 -7z"/>
<path d="M8832 2031 c-10 -6 -8 -10 9 -14 13 -4 25 -4 28 -2 2 3 -1 5 -8 5 -7
0 -9 5 -6 10 8 12 -5 13 -23 1z"/>
<path d="M5455 1960 c3 -5 11 -10 16 -10 6 0 7 5 4 10 -3 6 -11 10 -16 10 -6
0 -7 -4 -4 -10z"/>
<path d="M8171 1736 c-32 -11 -31 -31 1 -23 7 2 10 2 5 0 -11 -7 2 -23 19 -23
9 0 12 5 8 11 -4 8 1 9 17 5 l24 -7 -23 14 c-25 14 -20 29 6 20 15 -4 15 -3 2
6 -18 13 -16 13 -59 -3z"/>
<path d="M8262 1723 c5 -25 28 -28 28 -4 0 12 -6 21 -16 21 -9 0 -14 -7 -12
-17z"/>
<path d="M6020 1718 c-16 -7 -20 -12 -12 -15 8 -3 21 2 30 11 19 18 17 19 -18
4z"/>
<path d="M6698 1553 c7 -3 16 -2 19 1 4 3 -2 6 -13 5 -11 0 -14 -3 -6 -6z"/>
<path d="M6898 1553 c12 -2 32 -2 45 0 12 2 2 4 -23 4 -25 0 -35 -2 -22 -4z"/>
<path d="M6821 1483 c-17 -32 -14 -43 13 -43 34 0 39 14 17 41 l-18 23 -12
-21z"/>
<path d="M9640 2749 c0 -15 18 -19 23 -6 3 8 -1 14 -9 14 -8 0 -14 -4 -14 -8z"/>
<path d="M4635 1820 c3 -5 8 -10 11 -10 2 0 4 5 4 10 0 6 -5 10 -11 10 -5 0
-7 -4 -4 -10z"/>
<path d="M5798 1163 c7 -3 16 -2 19 1 4 3 -2 6 -13 5 -11 0 -14 -3 -6 -6z"/>
<path d="M10507 2993 c-4 -3 -7 -11 -7 -17 0 -6 5 -5 12 2 6 6 9 14 7 17 -3 3
-9 2 -12 -2z"/>
<path d="M4823 1673 c-23 -8 -14 -25 9 -17 21 6 22 5 8 -11 -14 -17 -14 -17 7
-4 12 7 21 14 20 14 -1 0 -9 6 -17 11 -8 6 -21 9 -27 7z"/>
<path d="M5520 1250 c0 -5 5 -10 11 -10 5 0 7 5 4 10 -3 6 -8 10 -11 10 -2 0
-4 -4 -4 -10z"/>
<path d="M7845 1003 c20 -11 35 -11 82 0 l57 12 -82 0 c-72 0 -79 -1 -57 -12z"/>
</g>
</svg>
